<svg width="9532" height="913" viewBox="0 0 9532 913" fill="none" xmlns="http://www.w3.org/2000/svg">
<path d="M0.875 738V10.7273H512.239V169.818H198.318V255.045H272.182C333.261 255.045 386.647 264.87 432.338 284.52C478.266 304.17 513.896 331.868 539.227 367.616C564.795 403.365 577.58 445.386 577.58 493.682C577.58 541.977 564.795 584.473 539.227 621.168C513.896 657.863 478.266 686.509 432.338 707.105C386.647 727.702 333.261 738 272.182 738H0.875ZM198.318 583.17H272.182C295.856 583.17 315.742 579.264 331.841 571.452C348.176 563.639 360.487 552.867 368.773 539.136C377.295 525.405 381.557 509.78 381.557 492.261C381.557 467.403 372.206 446.807 353.503 430.472C334.8 413.9 307.693 405.614 272.182 405.614H198.318V583.17ZM1138.72 10.7273V169.818H824.803V738H627.359V10.7273H1138.72ZM1297.43 747.943V594.534H1332.95C1353.78 594.534 1370.23 592.877 1382.31 589.562C1394.62 586.011 1404.09 579.856 1410.72 571.097C1417.58 562.1 1423.38 549.553 1428.12 533.455L1435.22 512.148L1162.49 10.7273H1364.2L1516.18 306.182L1632.66 10.7273H1831.52L1581.52 578.909C1567.79 608.739 1551.46 636.556 1532.52 662.361C1513.58 687.929 1490.02 708.644 1461.85 724.506C1433.68 740.131 1398.76 747.943 1357.09 747.943H1297.43ZM2054.66 10.7273H2300.4L2469.44 422.659H2477.96L2646.99 10.7273H2892.73V738H2699.55V317.545H2693.87L2531.94 732.318H2415.46L2253.53 314.705H2247.85V738H2054.66V10.7273ZM2966.3 738V10.7273H3490.45V169.818H3163.75V294.818H3463.46V453.909H3163.75V578.909H3489.03V738H2966.3ZM4247.35 283.455H4047.07C4045.65 266.883 4041.86 251.849 4035.7 238.355C4029.79 224.861 4021.5 213.26 4010.85 203.554C4000.43 193.611 3987.76 186.035 3972.85 180.827C3957.93 175.382 3941.01 172.659 3922.07 172.659C3888.92 172.659 3860.87 180.708 3837.91 196.807C3815.18 212.905 3797.9 235.988 3786.06 266.054C3774.46 296.12 3768.66 332.223 3768.66 374.364C3768.66 418.871 3774.58 456.158 3786.41 486.224C3798.49 516.054 3815.89 538.545 3838.62 553.696C3861.34 568.611 3888.69 576.068 3920.65 576.068C3938.88 576.068 3955.21 573.819 3969.65 569.321C3984.09 564.586 3996.64 557.839 4007.3 549.08C4017.95 540.32 4026.59 529.785 4033.22 517.474C4040.08 504.927 4044.7 490.841 4047.07 475.216L4247.35 476.636C4244.98 507.413 4236.34 538.781 4221.43 570.741C4206.51 602.465 4185.33 631.821 4157.86 658.81C4130.64 685.562 4096.9 707.105 4056.66 723.44C4016.41 739.776 3969.65 747.943 3916.39 747.943C3849.62 747.943 3789.73 733.62 3736.7 704.974C3683.91 676.329 3642.12 634.188 3611.34 578.554C3580.8 522.92 3565.53 454.856 3565.53 374.364C3565.53 293.398 3581.16 225.216 3612.41 169.818C3643.66 114.184 3685.8 72.1619 3738.83 43.7528C3791.86 15.107 3851.05 0.784064 3916.39 0.784064C3962.31 0.784064 4004.57 7.05773 4043.16 19.6051C4081.75 32.1524 4115.61 50.5 4144.72 74.6477C4173.84 98.5587 4197.28 128.033 4215.04 163.071C4232.79 198.109 4243.56 238.237 4247.35 283.455ZM4995.91 283.455H4795.62C4794.2 266.883 4790.41 251.849 4784.26 238.355C4778.34 224.861 4770.05 213.26 4759.4 203.554C4748.98 193.611 4736.32 186.035 4721.4 180.827C4706.49 175.382 4689.56 172.659 4670.62 172.659C4637.48 172.659 4609.42 180.708 4586.46 196.807C4563.73 212.905 4546.45 235.988 4534.61 266.054C4523.01 296.12 4517.21 332.223 4517.21 374.364C4517.21 418.871 4523.13 456.158 4534.97 486.224C4547.04 516.054 4564.44 538.545 4587.17 553.696C4609.9 568.611 4637.24 576.068 4669.2 576.068C4687.43 576.068 4703.77 573.819 4718.21 569.321C4732.65 564.586 4745.2 557.839 4755.85 549.08C4766.5 540.32 4775.14 529.785 4781.77 517.474C4788.64 504.927 4793.26 490.841 4795.62 475.216L4995.91 476.636C4993.54 507.413 4984.9 538.781 4969.98 570.741C4955.07 602.465 4933.88 631.821 4906.42 658.81C4879.19 685.562 4845.46 707.105 4805.21 723.44C4764.96 739.776 4718.21 747.943 4664.94 747.943C4598.18 747.943 4538.28 733.62 4485.25 704.974C4432.46 676.329 4390.67 634.188 4359.9 578.554C4329.36 522.92 4314.09 454.856 4314.09 374.364C4314.09 293.398 4329.71 225.216 4360.96 169.818C4392.21 114.184 4434.35 72.1619 4487.38 43.7528C4540.41 15.107 4599.6 0.784064 4664.94 0.784064C4710.87 0.784064 4753.13 7.05773 4791.72 19.6051C4830.31 32.1524 4864.16 50.5 4893.28 74.6477C4922.4 98.5587 4945.84 128.033 4963.59 163.071C4981.35 198.109 4992.12 238.237 4995.91 283.455ZM5065.48 738V10.7273H5589.63V169.818H5262.93V294.818H5562.64V453.909H5262.93V578.909H5588.21V738H5065.48ZM5667.55 738V10.7273H5865V294.818H6126.36V10.7273H6323.8V738H6126.36V453.909H5865V738H5667.55ZM6373.41 912.716V586.011H6424.54C6441.59 575.595 6456.98 560.917 6470.71 541.977C6484.68 523.038 6496.51 495.931 6506.22 460.656C6516.16 425.382 6523.5 378.152 6528.24 318.966L6552.38 10.7273H7066.59V586.011H7143.29V912.716H6952.95V738H6563.75V912.716H6373.41ZM6650.4 586.011H6876.25V169.818H6729.94L6718.58 318.966C6715.26 363.473 6710.17 402.418 6703.31 435.798C6696.68 468.942 6688.75 497.825 6679.51 522.446C6670.52 546.83 6660.81 568.019 6650.4 586.011ZM7826.42 10.7273V738H7636.08V10.7273H7826.42ZM7173.01 738L7396.02 351.636L7175.85 10.7273H7420.17L7566.48 294.818H7901.7L8040.91 10.7273H8283.8L8073.58 348.795L8289.49 738H8050.85L7925.85 476.636H7540.91L7410.23 738H7173.01ZM8345.84 738V10.7273H8869.98V169.818H8543.28V294.818H8843V453.909H8543.28V578.909H8868.56V738H8345.84ZM8947.91 738V10.7273H9261.83C9315.8 10.7273 9363.03 21.3807 9403.52 42.6875C9444 63.9943 9475.49 93.9422 9497.98 132.531C9520.47 171.12 9531.71 216.22 9531.71 267.83C9531.71 319.913 9520.11 365.012 9496.91 403.128C9473.95 441.243 9441.63 470.599 9399.97 491.196C9358.54 511.793 9310.12 522.091 9254.72 522.091H9067.22V368.682H9214.95C9238.15 368.682 9257.92 364.657 9274.26 356.608C9290.83 348.322 9303.49 336.603 9312.25 321.452C9321.25 306.3 9325.75 288.426 9325.75 267.83C9325.75 246.996 9321.25 229.241 9312.25 214.562C9303.49 199.648 9290.83 188.284 9274.26 180.472C9257.92 172.422 9238.15 168.398 9214.95 168.398H9145.35V738H8947.91Z" fill="#122F54"/>
</svg>
