<svg width="774" height="1004" viewBox="0 0 774 1004" stroke="currentColor" xmlns="http://www.w3.org/2000/svg">
<g clip-path="url(#clip0_2_50)">
<path d="M495.072 593.829C495.072 542.67 495.072 492.02 495.072 440.782C502.755 440.782 510.238 440.66 517.707 440.921C518.772 440.958 520.069 442.704 520.705 443.939C521.191 444.884 520.803 446.271 520.803 447.461C520.803 522.788 520.803 598.115 520.803 673.441C520.803 675.287 520.803 677.132 520.803 679.307C522.512 679.391 523.993 679.526 525.474 679.527C542.969 679.542 560.465 679.522 577.961 679.55C581.059 679.555 583.565 679.4 581.622 675.163C581.104 674.034 581.53 672.477 581.53 671.117C581.529 612.794 581.529 554.471 581.529 496.148C581.529 477.925 581.529 459.701 581.529 440.79C590.284 440.79 597.926 440.649 605.549 440.965C606.514 441.005 608.177 443.441 608.165 444.754C608.057 456.22 607.575 467.683 607.371 479.149C607.328 481.595 608.247 484.053 608.249 486.505C608.301 550.606 608.29 614.707 608.29 679.173C630.74 679.173 653.115 679.173 675.856 679.173C675.856 610.686 675.856 541.919 675.856 472.616C655.376 466.867 634.001 468.634 612.618 468.276C612.618 466.906 612.618 465.81 612.618 464.362C631.262 462.12 649.705 463.403 668.108 466.241C669.281 466.422 670.506 466.261 671.706 466.292C677.629 466.443 679.308 468.126 679.308 473.899C679.309 541.404 679.252 608.909 679.424 676.414C679.437 681.46 677.662 682.697 673.021 682.663C652.268 682.513 631.512 682.598 610.758 682.598C444.919 682.598 279.079 682.598 113.24 682.598C107.54 682.598 101.84 682.598 95.9241 682.598C95.9241 610.435 95.9241 539.575 95.9241 467.842C117.742 463.491 139.763 462.091 162.124 464.344C163.457 467.541 162.309 468.43 159.081 468.381C149.478 468.236 139.849 467.931 130.271 468.444C121.076 468.935 111.934 470.395 102.763 471.378C99.6836 471.708 98.7331 473.191 98.7375 476.315C98.8314 542.46 98.8269 608.605 98.7554 674.75C98.7517 678.108 99.4862 679.635 103.296 679.609C124.556 679.459 145.816 679.537 167.481 679.537C167.481 600.101 167.481 520.787 167.481 440.79C175.503 440.79 183.143 440.688 190.773 440.92C191.71 440.949 192.893 442.629 193.406 443.785C193.849 444.783 193.5 446.126 193.5 447.316C193.5 522.643 193.5 597.97 193.5 673.297C193.5 675.155 193.5 677.014 193.5 679.187C194.74 679.311 195.868 679.521 196.995 679.522C214.663 679.543 232.33 679.51 249.997 679.56C253.374 679.569 256.352 679.626 254.296 674.806C253.865 673.796 254.226 672.452 254.226 671.262C254.226 612.769 254.226 554.276 254.226 495.783C254.226 477.679 254.226 459.576 254.226 440.79C262.992 440.79 270.632 440.688 278.262 440.92C279.198 440.949 280.38 442.63 280.893 443.788C281.335 444.786 280.987 446.128 280.987 447.319C280.987 522.645 280.987 597.972 280.987 673.299C280.987 675.157 280.987 677.016 280.987 679.205C302.818 679.205 324.506 679.205 346.859 679.205C346.859 677.604 346.859 675.813 346.859 674.022C346.859 598.355 346.843 522.688 346.943 447.022C346.945 444.952 347.982 441.214 348.886 441.105C352.674 440.649 356.618 441.133 360.44 441.703C360.916 441.774 361.229 444.414 361.234 445.865C361.288 463.039 361.269 480.213 361.269 497.387C361.269 556.05 361.269 614.713 361.269 673.376C361.269 675.227 361.269 677.078 361.269 679.232C379.038 679.232 396.609 679.232 414.589 679.232C414.589 600.018 414.589 520.704 414.589 441.658C415.255 441.198 415.522 440.853 415.788 440.854C431.098 440.903 428.096 438.862 428.117 452.533C428.23 526.159 428.17 599.785 428.17 673.412C428.17 675.26 428.17 677.108 428.17 679.245C450.426 679.245 472.457 679.245 495.072 679.245C495.072 650.986 495.072 622.663 495.072 593.829ZM187.325 578.014C187.325 609.292 187.295 640.569 187.386 671.846C187.392 674.118 188.269 676.388 188.741 678.659C189.197 678.547 189.653 678.435 190.108 678.323C190.108 615.876 190.108 553.429 190.108 491.08C183.207 491.08 176.614 491.08 169.935 491.08C169.89 492.04 169.832 492.701 169.832 493.363C169.827 553.708 169.827 614.053 169.828 674.398C169.828 675.248 169.543 676.267 169.916 676.904C170.373 677.683 171.385 678.143 173.003 679.396C173.003 617.083 173.003 556.138 173.003 495.049C178.295 495.049 183.201 495.049 187.325 495.049C187.325 522.486 187.325 549.74 187.325 578.014ZM514.628 559.648C514.628 598.202 514.615 636.755 514.69 675.309C514.693 676.461 515.621 677.611 516.117 678.763C516.531 678.56 516.944 678.358 517.358 678.155C517.358 615.728 517.358 553.302 517.358 491.132C510.401 491.132 503.805 491.132 497.413 491.132C497.413 553.801 497.413 616.116 497.413 678.43C498.003 678.553 498.592 678.675 499.182 678.798C499.527 677.17 500.173 675.543 500.175 673.916C500.227 617.492 500.212 561.068 500.235 504.645C500.236 501.459 499.523 497.701 500.981 495.314C501.795 493.983 506.407 494.934 509.307 494.857C509.478 494.852 509.675 494.909 509.817 494.844C514.489 492.717 514.672 495.489 514.66 498.975C514.593 518.859 514.628 538.744 514.628 559.648ZM260.402 552.506C260.402 533.364 260.402 514.221 260.402 495.15C265.525 495.15 270.06 495.15 274.811 495.15C274.811 497.286 274.811 499.136 274.811 500.985C274.811 558.28 274.811 615.575 274.812 672.869C274.812 674.229 274.551 675.669 274.926 676.92C275.153 677.677 276.371 678.143 277.651 679.132C277.651 615.713 277.651 553.403 277.651 491.006C271.135 491.006 264.87 491.006 258.343 491.006C258.343 497.153 258.44 503.066 258.324 508.975C258.04 523.482 257.53 537.987 257.379 552.495C257.322 557.991 258.281 563.494 258.297 568.995C258.391 601.128 258.347 633.261 258.333 665.393C258.332 666.909 258.125 668.425 258.104 669.942C258.066 672.787 258.093 675.633 258.093 678.478C258.863 678.457 259.632 678.436 260.402 678.415C260.402 636.785 260.402 595.156 260.402 552.506ZM587.705 508.64C587.705 504.108 587.705 499.576 587.705 494.581C592.794 494.581 597.319 494.581 602.114 494.581C602.114 497.12 602.114 498.974 602.114 500.829C602.114 558.281 602.114 615.733 602.115 673.186C602.115 674.375 601.909 675.618 602.198 676.735C602.375 677.42 603.313 677.911 603.91 678.49C604.338 677.915 605.029 677.385 605.139 676.755C605.341 675.6 605.202 674.385 605.202 673.196C605.202 614.894 605.202 556.592 605.202 498.29C605.202 497.1 605.286 495.902 605.183 494.722C604.951 492.092 603.972 490.487 600.77 490.708C596.675 490.991 592.542 490.861 588.43 490.748C585.521 490.668 584.901 492.243 584.999 494.667C585.243 500.666 585.612 506.667 585.618 512.667C585.667 563.32 585.668 613.974 585.602 664.627C585.597 668.282 584.828 671.932 584.7 675.594C584.663 676.655 585.623 677.751 586.126 678.831C586.652 678.663 587.179 678.494 587.705 678.326C587.705 622.103 587.705 565.88 587.705 508.64Z" fill="white"/>
<path d="M347.888 408.13C328.191 408.13 309.009 408.13 289.524 408.13C289.524 341.206 289.524 274.489 289.524 207.349C301.814 201.827 314.44 196.269 326.966 190.496C341.42 183.833 355.815 177.041 370.136 170.102C371.343 169.517 372.305 167.452 372.482 165.969C372.844 162.956 372.59 159.871 372.59 156.463C382.348 156.463 392.031 156.463 402.141 156.463C402.141 160.349 402.141 164.506 402.141 168.826C430.116 181.789 457.805 194.621 486.179 207.77C486.179 274.125 486.179 340.861 486.179 408.13C439.834 408.13 394.119 408.13 347.888 408.13ZM399.786 176.516C389.403 176.516 379.02 176.516 368.473 176.516C368.473 180.185 368.099 183.287 368.57 186.257C369.136 189.829 367.155 191.573 364.557 192.76C353.878 197.639 343.144 202.402 332.377 207.088C322.685 211.306 312.885 215.282 303.242 219.604C302.005 220.159 300.708 222.134 300.663 223.491C300.413 230.96 300.424 238.445 300.682 245.914C300.718 246.953 302.616 248.788 303.651 248.787C308.502 248.786 313.352 247.993 318.204 247.983C356.431 247.904 394.659 247.939 432.887 247.939C446.635 247.939 460.384 247.939 474.487 247.939C474.487 240.845 474.223 233.04 474.612 225.267C474.775 222.011 472.961 220.563 470.839 219.644C463.674 216.539 456.239 214.039 449.102 210.878C435.866 205.017 422.718 198.952 409.677 192.677C408.169 191.952 406.928 189.444 406.693 187.62C406.228 184.017 406.556 180.314 406.556 176.516C404.193 176.516 402.492 176.516 399.786 176.516ZM400.792 340.789C402.615 340.789 404.439 340.789 406.307 340.789C406.307 335.109 406.307 329.941 406.307 324.94C405.923 324.692 405.787 324.529 405.651 324.528C397.093 324.498 388.535 324.509 379.977 324.457C365.324 324.37 368.993 324.398 368.426 336.139C368.256 339.664 369.433 340.945 373.086 340.858C381.981 340.646 390.886 340.789 400.792 340.789ZM441.098 324.463C438.597 324.463 436.096 324.463 433.558 324.463C433.558 330.146 433.558 335.305 433.558 340.313C445.935 340.313 458.068 340.313 470.369 340.313C470.369 336.273 470.227 332.38 470.414 328.503C470.566 325.351 469.241 324.365 466.187 324.417C458.164 324.555 450.136 324.463 441.098 324.463ZM328.836 324.463C322.159 324.463 315.48 324.573 308.806 324.415C305.692 324.342 304.47 325.445 304.616 328.557C304.798 332.447 304.66 336.353 304.66 340.308C317.05 340.308 329.288 340.308 341.406 340.308C341.406 334.994 341.406 329.825 341.406 324.463C337.353 324.463 333.606 324.463 328.836 324.463ZM440.164 281.61C449.173 281.61 458.182 281.61 466.926 281.61C466.926 276.754 466.926 272.598 466.926 268.698C456.541 268.698 446.514 268.698 436.404 268.698C436.404 272.276 436.181 275.526 436.531 278.713C436.646 279.761 438.246 280.649 440.164 281.61ZM371.561 276.942C371.561 278.408 371.561 279.875 371.561 281.34C382.126 281.34 392.151 281.34 402.163 281.34C402.163 276.91 402.163 272.754 402.163 268.621C391.86 268.621 381.835 268.621 371.561 268.621C371.561 271.249 371.561 273.603 371.561 276.942ZM307.748 271.058C307.748 274.545 307.748 278.032 307.748 281.257C318.488 281.257 328.516 281.257 338.263 281.257C338.263 276.738 338.263 272.583 338.263 268.346C328.986 268.346 320.071 268.284 311.159 268.422C310.015 268.44 308.887 269.499 307.748 271.058ZM392.626 368.337C395.825 368.337 399.023 368.337 402.153 368.337C402.153 363.616 402.153 359.461 402.153 355.355C391.842 355.355 381.82 355.355 371.848 355.355C371.848 359.798 371.848 363.954 371.848 368.337C378.625 368.337 385.116 368.337 392.626 368.337ZM322.672 355.073C317.766 355.073 312.86 355.073 308.043 355.073C308.043 359.816 308.043 363.972 308.043 368.046C318.364 368.046 328.386 368.046 338.329 368.046C338.329 363.595 338.329 359.439 338.329 355.073C333.256 355.073 328.478 355.073 322.672 355.073ZM467.282 362.906C467.047 360.305 466.812 357.704 466.598 355.339C456.423 355.339 446.547 355.339 436.673 355.339C436.673 359.764 436.673 363.917 436.673 368.082C446.968 368.082 456.993 368.082 467.282 368.082C467.282 366.507 467.282 365.174 467.282 362.906ZM384.199 372.479C380.002 372.479 375.804 372.479 371.759 372.479C371.759 381.624 371.759 390.081 371.759 398.74C376.147 398.74 380.337 398.74 384.885 398.74C384.885 390.1 384.885 381.645 384.199 372.479ZM384.941 307.526C384.941 300.63 384.941 293.734 384.941 287.043C380.081 287.043 375.89 287.043 371.896 287.043C371.896 295.957 371.896 304.535 371.896 313.086C376.302 313.086 380.372 313.086 384.941 313.086C384.941 311.467 384.941 309.995 384.941 307.526ZM307.747 306.532C307.747 308.682 307.747 310.831 307.747 312.972C312.137 312.972 315.986 312.972 319.828 312.972C319.828 304.124 319.828 295.547 319.828 286.982C315.703 286.982 311.855 286.982 307.747 286.982C307.747 293.341 307.747 299.434 307.747 306.532ZM338.621 311.488C338.621 303.244 338.621 294.999 338.621 286.905C334.145 286.905 330.415 286.905 326.485 286.905C326.485 295.675 326.485 304.253 326.485 313.554C330.665 313.179 334.617 312.825 338.621 311.488ZM447.019 286.716C443.505 286.716 439.991 286.716 436.77 286.716C436.77 296.022 436.77 304.605 436.77 312.87C440.991 312.87 444.842 312.87 448.008 312.87C448.008 303.919 448.008 295.345 447.019 286.716ZM466.547 286.773C462.694 286.773 458.84 286.773 455.309 286.773C455.309 296.036 455.309 304.615 455.309 313.044C459.417 313.044 463.146 313.044 467.226 313.044C467.226 304.398 467.226 295.942 466.547 286.773ZM338.625 396.208C338.625 388.297 338.625 380.387 338.625 372.784C334.044 372.784 330.195 372.784 326.642 372.784C326.642 381.734 326.642 390.316 326.642 398.947C329.582 398.947 332.175 399.14 334.718 398.869C336.064 398.726 337.323 397.776 338.625 396.208ZM390.837 372.479C390.837 381.175 390.837 389.872 390.837 398.729C394.371 398.729 398.219 398.729 402.215 398.729C402.215 389.933 402.215 381.355 402.215 372.423C398.61 372.423 395.218 372.423 390.837 372.479ZM448.006 398.887C448.006 390.19 448.006 381.494 448.006 372.636C444.472 372.636 440.624 372.636 436.628 372.636C436.628 381.433 436.628 390.011 436.628 398.943C440.233 398.943 443.624 398.943 448.006 398.887ZM456.67 372.423C456.109 372.696 455.06 372.965 455.057 373.243C454.97 381.778 454.986 390.313 454.986 398.629C459.457 398.629 463.29 398.629 467.021 398.629C467.021 389.771 467.021 381.233 467.021 372.419C463.727 372.419 460.691 372.419 456.67 372.423ZM311.462 398.947C314.3 398.947 317.137 398.947 319.761 398.947C319.761 389.695 319.761 381.114 319.761 372.76C315.567 372.76 311.717 372.76 307.747 372.76C307.747 380.742 307.648 388.387 307.868 396.023C307.897 397.021 309.563 397.973 311.462 398.947ZM402.439 303.514C402.439 297.983 402.439 292.452 402.439 286.711C399.996 286.711 398.136 286.711 396.276 286.711C394.292 286.711 392.307 286.711 390.591 286.711C390.267 287.424 390.144 287.569 390.143 287.714C390.118 292.633 390.131 297.552 390.082 302.47C389.947 315.948 390.246 312.958 401.469 313.165C401.727 313.17 401.992 312.809 402.439 312.485C402.439 309.916 402.439 307.219 402.439 303.514Z" fill="white"/>
<path d="M509.481 394.819C509.481 342.458 509.552 290.6 509.368 238.742C509.351 233.745 510.816 232.464 515.725 232.525C536.303 232.783 556.888 232.703 577.469 232.57C581.088 232.546 582.645 233.316 582.637 237.334C582.52 292.933 582.557 348.532 582.547 404.131C582.547 404.612 582.425 405.094 582.291 406.089C574.278 406.089 566.279 406.089 558.28 406.089C544.071 406.089 529.856 405.871 515.655 406.206C510.617 406.325 508.729 404.793 509.447 399.907C509.668 398.408 509.481 396.851 509.481 394.819ZM553.217 339.768C557.781 339.768 562.346 339.768 566.826 339.768C566.826 334.009 566.826 328.834 566.826 323.733C554.107 323.733 541.684 323.733 529.332 323.733C529.332 329.202 529.332 334.376 529.332 339.768C537.147 339.768 544.669 339.768 553.217 339.768ZM560.241 267.325C553.768 267.256 547.239 267.681 540.836 266.982C534.059 266.244 532.126 267.329 532.125 273.917C532.125 276.052 532.125 278.187 532.125 280.377C542.648 280.377 552.634 280.377 563.001 280.377C563.001 276.665 563.107 273.149 562.92 269.648C562.878 268.848 561.823 268.101 560.241 267.325ZM532.189 354.77C532.168 357.829 531.823 360.937 532.28 363.924C532.472 365.185 534.324 367.133 535.471 367.167C544.505 367.435 553.552 367.316 562.796 367.316C562.796 362.768 562.796 358.615 562.796 354.107C552.708 354.107 542.81 354.107 532.189 354.77ZM532.125 293.387C532.125 299.242 532.125 305.097 532.125 310.95C536.854 310.95 541.028 310.95 544.991 310.95C544.991 302.155 544.991 293.61 544.991 284.998C540.916 284.998 536.597 284.998 532.125 284.998C532.125 287.677 532.125 290.031 532.125 293.387ZM534.823 398.947C537.218 398.947 539.734 399.385 541.963 398.782C543.298 398.421 545.063 396.472 545.124 395.166C545.421 388.89 545.374 382.58 545.033 376.304C544.96 374.962 543.318 372.798 542.126 372.597C539.008 372.07 535.74 372.42 532.128 372.42C532.128 380.893 532.09 388.988 532.203 397.082C532.211 397.709 533.273 398.323 534.823 398.947ZM550.652 375.194C550.652 383.075 550.652 390.956 550.652 398.625C555.173 398.625 559.012 398.625 563.003 398.625C563.003 391.376 563.131 384.445 562.917 377.524C562.86 375.682 561.391 372.245 561.18 372.291C557.693 373.051 553.545 370.663 550.652 375.194ZM558.307 284.671C555.82 284.671 553.332 284.671 550.893 284.671C550.893 293.806 550.893 302.342 550.893 310.985C554.967 310.985 558.796 310.985 563.001 310.985C563.001 302.879 562.893 294.979 563.054 287.085C563.12 283.828 560.95 284.836 558.307 284.671Z" fill="white"/>
<path d="M192.471 326.504C192.471 295.417 192.471 264.84 192.471 233.959C216.753 233.959 240.836 233.959 265.234 233.959C265.234 291.034 265.234 348.228 265.234 406.089C260.869 406.089 256.317 406.014 251.769 406.103C237.159 406.388 222.55 406.754 207.939 407.044C203.859 407.125 199.762 407.249 195.697 406.98C192.752 406.785 192.396 404.639 192.407 401.975C192.514 376.988 192.471 352.001 192.471 326.504ZM245.992 327.158C246.402 324.489 245.678 323.246 242.53 323.366C235.861 323.619 229.175 323.443 222.496 323.443C207.596 323.443 207.592 323.443 207.94 338.189C207.95 338.644 208.203 339.095 208.331 339.51C220.88 339.51 233.291 339.51 245.992 339.51C245.992 335.55 245.992 331.846 245.992 327.158ZM233.083 280.589C235.927 280.589 238.771 280.589 241.678 280.589C241.678 275.895 241.678 271.727 241.678 267.152C231.353 267.152 221.234 267.152 211.318 267.152C211.318 272.147 211.318 276.288 211.318 280.589C218.446 280.589 225.254 280.589 233.083 280.589ZM241.815 366.581C241.815 362.42 241.815 358.259 241.815 354.249C231.217 354.249 221.315 354.249 211.207 354.249C211.207 358.599 211.207 362.752 211.207 367.261C221.294 367.261 231.196 367.261 241.815 366.581ZM217.691 398.947C219.846 398.947 222 398.947 224.108 398.947C224.108 389.799 224.108 381.233 224.108 372.684C219.689 372.411 215.538 372.156 211.308 371.895C211.308 380.651 211.308 389.708 211.308 398.947C213.31 398.947 215.004 398.947 217.691 398.947ZM224.378 287.406C223.579 286.495 222.842 284.872 221.97 284.797C218.446 284.496 214.88 284.672 211.233 284.672C211.233 293.71 211.233 302.286 211.233 310.963C215.662 310.963 219.853 310.963 224.378 310.963C224.378 303.287 224.378 295.843 224.378 287.406ZM229.524 300.467C229.524 303.976 229.524 307.486 229.524 310.912C233.953 310.912 237.802 310.912 241.587 310.912C241.587 302.045 241.587 293.469 241.587 284.959C237.444 284.959 233.594 284.959 229.524 284.959C229.524 289.981 229.524 294.717 229.524 300.467ZM234.219 398.947C236.707 398.947 239.195 398.947 241.634 398.947C241.634 389.812 241.634 381.275 241.634 372.633C237.56 372.633 233.731 372.633 229.525 372.633C229.525 380.739 229.634 388.639 229.473 396.533C229.407 399.79 231.577 398.782 234.219 398.947Z" fill="white"/>
<path d="M612.407 451.944C612.407 449.413 612.067 447.299 612.503 445.356C612.939 443.409 614.15 441.632 615.022 439.78C615.527 439.925 616.032 440.069 616.537 440.214C616.537 434.128 616.537 428.042 616.537 421.578C617.967 421.449 619.21 421.337 620.641 421.208C620.641 417.132 620.597 413.414 620.655 409.697C620.7 406.776 619.175 406.199 616.573 406.536C614.362 406.822 611.947 407.259 609.893 406.682C605.448 405.432 606.461 400.999 606.403 398.105C606.057 380.886 606.232 363.657 606.232 345.932C620.255 344.568 632.968 344.9 645.832 345.582C655.657 346.103 665.017 348.09 674.531 349.903C678.892 350.734 680.499 352.487 680.464 357.183C680.223 388.959 680.367 420.739 680.289 452.517C680.282 455.417 679.593 458.316 679.398 459.832C656.789 458.589 634.882 457.384 612.407 456.148C612.407 455.367 612.407 453.901 612.407 451.944ZM623.729 373.949C623.729 368.743 623.729 363.536 623.729 358.427C620.321 358.427 617.502 358.427 614.757 358.427C614.757 369.003 614.757 379.284 614.757 389.471C617.874 389.471 620.693 389.471 623.729 389.471C623.729 384.442 623.729 379.705 623.729 373.949ZM651.519 366.856C651.519 374.41 651.519 381.964 651.519 389.532C653.81 389.532 655.592 389.532 657.357 389.532C657.357 378.932 657.357 368.567 657.357 358.046C655.219 358.167 653.439 358.269 651.519 358.378C651.519 361.151 651.519 363.504 651.519 366.856ZM657.694 430.038C657.694 423.804 657.694 417.57 657.694 411.133C655.315 411.237 653.523 411.315 651.519 411.402C651.519 420.934 651.404 430.096 651.657 439.247C651.691 440.463 653.593 441.629 654.63 442.818C655.651 441.613 657.32 440.522 657.557 439.181C658.023 436.542 657.694 433.766 657.694 430.038Z" fill="white"/>
<path d="M95.7208 361.269C95.7208 352.005 95.6201 351.593 103.986 349.584C111.392 347.805 119.017 346.643 126.614 346.001C136.094 345.2 145.643 345.078 155.166 344.928C159.633 344.858 164.109 345.409 168.797 345.691C168.797 365.432 168.863 384.453 168.644 403.471C168.63 404.697 166.606 406.48 165.165 406.955C163.528 407.495 161.438 407.093 159.646 406.675C156.62 405.968 155.372 407.027 155.408 410.003C155.45 413.563 155.418 417.124 155.418 421.018C156.737 421.239 157.977 421.447 159.423 421.69C159.423 427.874 159.423 433.959 159.423 440.276C163.206 440.97 164.807 442.491 162.918 446.483C162.005 448.41 161.953 451.412 162.82 453.354C164.816 457.827 161.703 457.035 159.455 457.075C154.14 457.17 148.81 456.87 143.509 457.15C127.719 457.983 111.94 459.019 95.7208 460.002C95.7208 427.979 95.7208 394.873 95.7208 361.269ZM152.33 360.886C152.33 370.453 152.33 380.02 152.33 389.482C155.741 389.482 158.549 389.482 161.375 389.482C161.375 378.965 161.375 368.73 161.375 357.289C158.043 358.253 155.188 359.079 152.33 360.886ZM123.511 368.871C123.511 365.365 123.511 361.86 123.511 358.377C121.212 358.377 119.429 358.377 117.821 358.377C117.821 368.962 117.821 379.302 117.821 389.821C119.794 389.718 121.572 389.626 123.511 389.524C123.511 382.71 123.511 376.298 123.511 368.871ZM123.511 430.055C123.511 423.837 123.511 417.62 123.511 411.396C121.199 411.396 119.379 411.396 117.335 411.396C117.335 420.349 117.536 429.103 117.257 437.842C117.099 442.795 119.246 443.548 123.511 442.362C123.511 438.485 123.511 434.776 123.511 430.055Z" fill="white"/>
<path d="M491.984 242.837C491.984 229.745 492.013 217.162 491.96 204.579C491.949 201.959 492.039 199.934 495.635 199.942C530.256 200.013 564.876 199.984 600.056 199.984C600.056 201.865 600.056 203.5 600.056 205.135C600.056 270.428 600.025 335.722 600.121 401.016C600.128 405.673 599.248 408.038 593.971 406.164C592.603 405.678 590.911 406.091 588.991 406.091C588.991 346.411 588.991 286.807 588.991 226.858C560.413 226.858 532.207 226.858 503.306 226.858C503.306 228.41 503.306 230.197 503.306 231.984C503.306 288.266 503.306 344.548 503.305 400.83C503.305 406.616 499.14 409.221 493.968 406.296C492.772 405.62 492.068 403.135 492.064 401.48C491.962 359.992 491.984 318.503 491.984 277.014C491.984 265.792 491.984 254.57 491.984 242.837Z" fill="white"/>
<path d="M186.295 331.606C186.295 356.573 186.295 381.029 186.295 405.788C182.594 405.788 179.088 405.788 175.274 405.788C175.274 337.814 175.274 269.736 175.274 201.331C210.871 201.331 246.616 201.331 283.045 201.331C283.045 202.914 283.045 204.701 283.045 206.489C283.045 271.082 283.045 335.675 283.045 400.269C283.045 406.66 283.046 406.634 276.713 406.109C275.213 405.984 273.693 406.09 271.818 406.09C271.818 346.237 271.818 286.645 271.818 226.783C243.256 226.783 215.058 226.783 186.295 226.783C186.295 261.539 186.295 296.317 186.295 331.606Z" fill="white"/>
<path d="M652.251 272.428C659.729 273.789 666.713 275.27 673.746 276.465C678.239 277.228 680.576 278.762 680.482 284.088C680.125 304.463 680.338 324.847 680.338 346.655C655.942 340.175 631.47 339.013 606.531 341.181C606.397 339.639 606.243 338.682 606.242 337.724C606.228 317.329 606.333 296.934 606.145 276.54C606.108 272.497 607.286 271.197 611.397 271.32C620.648 271.596 629.914 271.304 639.171 271.453C643.377 271.52 647.575 272.087 652.251 272.428ZM623.729 292.488C623.605 291.244 623.481 290 623.38 288.978C620.177 288.978 617.491 288.978 614.674 288.978C614.674 299.817 614.674 310.431 614.674 321.022C623.728 321.922 623.728 321.922 623.729 313.338C623.729 306.717 623.729 300.097 623.729 292.488ZM651.519 297.474C651.519 305.367 651.519 313.26 651.519 321.171C653.802 321.171 655.584 321.171 657.358 321.171C657.358 310.231 657.358 299.525 657.358 288.664C655.227 288.785 653.443 288.887 651.519 288.996C651.519 291.77 651.519 294.122 651.519 297.474Z" fill="white"/>
<path d="M164.593 271.406C167.835 270.975 168.892 271.83 168.872 274.878C168.733 296.627 168.798 318.377 168.798 341.019C144.31 339.487 120.043 339.753 95.7208 346.744C95.7208 337.955 95.7208 330.177 95.7208 322.398C95.7208 309.307 95.9879 296.207 95.5747 283.129C95.4316 278.599 97.553 277.062 101.128 276.575C114.555 274.747 127.979 272.794 141.465 271.532C148.947 270.831 156.552 271.406 164.593 271.406ZM161.593 307.62C161.593 301.393 161.593 295.166 161.593 289.047C158.181 289.047 155.361 289.047 152.623 289.047C152.623 299.966 152.623 310.587 152.623 321.107C155.743 321.107 158.563 321.107 161.593 321.107C161.593 316.756 161.593 312.697 161.593 307.62ZM117.363 314.2C117.363 316.513 117.363 318.826 117.363 321.164C119.628 321.164 121.412 321.164 123.31 321.164C123.31 310.327 123.31 299.728 123.31 288.941C121.325 288.941 119.541 288.941 117.707 288.941C117.707 297.187 117.707 305.269 117.363 314.2Z" fill="white"/>
<path d="M470.366 436.699C409.841 436.699 349.83 436.699 289.52 436.699C289.52 431.655 289.52 426.82 289.52 421.687C354.7 421.687 419.955 421.687 485.51 421.687C485.51 426.439 485.51 431.274 485.51 436.699C480.694 436.699 475.787 436.699 470.366 436.699Z" fill="white"/>
<path d="M356.888 820.405C341.601 825.059 329.681 817.354 326.057 802.366C323.238 790.71 329.105 776.581 341.432 771.358C350.709 767.429 365.684 771.654 371.685 779.85C376.836 786.885 378.563 794.74 378.692 803.03C378.841 812.671 379.381 822.292 375.802 831.734C369.7 847.832 348.313 856.947 333.371 843.676C329.542 840.275 326.955 835.521 327.409 829.69C332.494 829.181 337.321 828.698 342.33 828.197C342.772 833.463 345.53 836.218 350.251 836.611C354.97 837.003 359.642 833.262 361.03 827.952C361.863 824.766 362.04 821.412 362.667 817.057C360.349 818.469 358.822 819.399 356.888 820.405ZM341.738 802.117C343.3 806.613 345.61 810.178 351.16 810.158C356.203 810.14 359.075 807.48 360.748 803.025C362.571 798.174 360.428 788.522 356.383 785.499C353.328 783.215 350.226 781.564 346.108 784.483C341.55 787.712 339.281 794.722 341.738 802.117Z" fill="white"/>
<path d="M477.515 849.931C464.467 849.697 455.004 840.397 452.764 828.595C450.114 814.633 449.949 800.889 453.913 787.199C456.351 778.782 464.46 770.819 474.821 770.209C491.807 769.208 498.923 778.723 501.985 793.575C504.726 806.874 504.258 820.41 499.802 833.533C496.273 843.923 488.572 848.814 477.515 849.931ZM486.838 804.705C486.122 799.629 485.591 794.518 484.63 789.487C483.886 785.591 480.487 782.838 477.218 782.961C473.82 783.09 469.846 785.504 469.439 789.776C468.136 803.421 466.848 817.02 470.148 830.707C471.482 836.238 474.789 835.572 478.52 835.656C482.375 835.743 484.253 833.046 484.639 830.112C485.703 822.013 486.148 813.833 486.838 804.705Z" fill="white"/>
<path d="M416.488 812.191C413.759 812.558 411.467 812.936 408.358 813.449C408.822 809.146 409.242 805.252 409.654 801.427C418.888 800.25 422.181 797.132 421.995 789.985C421.889 785.929 418.676 782.895 414.165 782.592C409.396 782.271 405.083 786.549 404.128 793.251C399.244 792.476 394.375 791.704 389.334 790.904C391.513 780.957 396.049 773.434 406.305 771.169C419.862 768.176 433.893 771.15 438.075 787.794C439.193 792.242 436.64 799.687 431.666 803.213C430.475 804.058 429.333 804.97 427.805 806.125C433.995 808.738 438.851 812.065 440.799 818.929C444.214 830.965 436.302 844.229 424.287 848.125C414.024 851.452 405.503 849.369 397.124 843.792C391.583 840.104 389.713 834.3 387.881 827.442C392.419 826.772 396.895 825.906 401.41 825.607C402.362 825.544 403.905 827.382 404.404 828.644C406.76 834.604 410.483 837.625 415.436 836.601C421.688 835.308 425.327 831.575 425.148 825.04C424.915 816.603 424.201 815.155 416.488 812.191Z" fill="white"/>
<path d="M563.003 436.699C540.37 436.699 518.251 436.605 496.134 436.784C492.055 436.817 490.503 435.659 490.894 431.576C491.198 428.398 490.955 425.169 490.955 421.68C530.704 421.68 570.22 421.68 610.347 421.68C610.347 425.586 610.325 429.598 610.353 433.609C610.378 437.015 607.96 436.704 605.696 436.703C591.636 436.696 577.577 436.699 563.003 436.699Z" fill="white"/>
<path d="M273.742 421.394C276.977 421.394 279.702 421.394 282.736 421.394C282.736 426.416 282.736 431.251 282.736 436.396C243.662 436.396 204.479 436.396 164.989 436.396C164.989 431.674 164.989 426.839 164.989 421.394C201 421.394 237.117 421.394 273.742 421.394Z" fill="white"/>
<path d="M606.231 221.752C606.062 219.02 606.428 217.52 609.289 218.788C621.578 224.235 633.901 229.607 646.187 235.06C656.547 239.657 666.886 244.302 677.208 248.982C679.995 250.246 681.964 258.026 679.743 259.991C678.807 260.82 676.415 260.562 674.884 260.12C653.005 253.81 630.566 253.743 608.086 254.046C607.611 254.053 607.133 253.895 606.231 253.742C606.231 243.205 606.231 232.714 606.231 221.752Z" fill="white"/>
<path d="M167.532 254.03C158.465 254.058 149.826 253.37 141.344 254.222C128.43 255.518 115.624 257.87 102.775 259.798C100.655 260.116 98.5526 260.554 95.7254 261.066C95.7254 258.005 95.5438 254.876 95.8292 251.79C95.9223 250.783 97.0328 249.45 98.0171 249.007C111.083 243.133 124.208 237.388 137.322 231.619C147.523 227.13 157.729 222.652 168.03 218.127C168.03 230.336 168.03 242.169 167.532 254.03Z" fill="white"/>
<path d="M288.191 808.111C288.191 803.41 288.191 799.216 288.191 794.105C281.54 797.662 275.592 800.843 268.636 804.563C268.636 799.23 268.41 795.66 268.76 792.147C268.881 790.928 270.208 789.511 271.364 788.762C278.154 784.362 285.816 781.071 289.416 772.96C289.982 771.686 292.28 770.673 293.9 770.459C296.909 770.063 300.009 770.346 303.35 770.346C303.35 796.153 303.35 821.729 303.35 847.598C298.538 847.598 293.661 847.598 288.191 847.598C288.191 834.655 288.191 821.637 288.191 808.111Z" fill="white"/>
<path d="M361.269 416.293C295.601 416.293 230.448 416.303 165.295 416.241C163.323 416.239 161.352 415.469 159.381 415.057C159.483 414.449 159.584 413.84 159.686 413.232C161.317 413.232 162.949 413.232 164.581 413.232C313.233 413.232 461.885 413.232 610.537 413.232C611.395 413.232 612.332 413.016 613.088 413.29C613.966 413.608 614.686 414.356 615.474 414.918C614.752 415.375 614.08 416.08 613.297 416.233C612.142 416.458 610.908 416.293 609.708 416.293C527.067 416.293 444.425 416.293 361.269 416.293Z" fill="white"/>
<path d="M298.484 482.704C298.484 480.519 298.484 478.833 298.484 476.502C307.979 476.502 317.335 476.389 326.677 476.678C327.611 476.707 329.223 479.168 329.244 480.52C329.442 493.249 329.362 505.982 329.362 519.029C319.17 519.029 309.148 519.029 298.484 519.029C298.484 507.187 298.484 495.195 298.484 482.704Z" fill="white"/>
<path d="M445.667 510.124C445.667 498.765 445.667 487.913 445.667 476.494C455.089 476.494 464.283 476.376 473.465 476.653C474.526 476.685 476.39 478.9 476.411 480.127C476.627 493.013 476.545 505.904 476.545 519.069C466.271 519.069 456.251 519.069 445.667 519.069C445.667 516.287 445.667 513.458 445.667 510.124Z" fill="white"/>
<path d="M301.572 617.298C301.572 611.036 301.572 605.284 301.572 598.61C305.782 600.334 310.833 595.925 313.778 601.903C316.765 596.295 321.839 600.214 326.067 598.534C326.067 616.724 326.067 634.126 326.067 651.506C317.993 651.506 310.056 651.506 301.572 651.506C301.572 640.435 301.572 629.121 301.572 617.298Z" fill="white"/>
<path d="M566.048 477.526C566.084 491.534 566.084 505.073 566.084 518.978C556.246 518.978 546.458 518.978 536.454 518.978C536.454 504.963 536.454 490.969 536.454 477.056C546.386 477.056 556.199 477.056 566.048 477.526Z" fill="white"/>
<path d="M406.556 629.541C406.556 642.628 406.448 655.208 406.624 667.783C406.674 671.364 405.499 672.668 401.891 672.451C397.816 672.205 393.715 672.394 389.343 672.394C389.343 647.94 389.343 623.727 389.343 599.222C394.844 599.222 400.406 599.222 406.556 599.222C406.556 609.11 406.556 619.07 406.556 629.541Z" fill="white"/>
<path d="M368.473 628.52C368.473 619.684 368.57 611.355 368.424 603.031C368.369 599.924 369.497 598.756 372.622 598.887C376.876 599.065 381.143 598.931 385.685 598.931C385.685 623.379 385.685 647.588 385.685 672.393C381.042 672.393 376.312 672.374 371.581 672.399C368.141 672.417 368.47 670.012 368.471 667.774C368.476 654.86 368.473 641.945 368.473 628.52Z" fill="white"/>
<path d="M208.939 505.055C208.939 495.409 208.939 486.271 208.939 476.813C218.756 476.813 228.415 476.813 238.918 476.813C238.918 490.684 238.918 504.767 238.918 519.1C228.813 519.1 219.155 519.1 208.939 519.1C208.939 514.593 208.939 510.078 208.939 505.055Z" fill="white"/>
<path d="M402.439 480.713C402.439 493.756 402.439 506.304 402.439 519.097C392.446 519.097 382.766 519.097 372.838 519.097C372.838 505.011 372.838 490.995 372.838 476.493C381.943 476.493 390.978 476.59 400.009 476.443C403.336 476.388 402.248 478.58 402.439 480.713Z" fill="white"/>
<path d="M217.174 543.833C226.766 543.833 235.843 543.878 244.92 543.812C248.593 543.785 250.557 544.949 250.176 549.057C249.852 552.561 250.109 556.118 250.109 559.903C232.946 559.903 216.079 559.903 198.928 559.903C198.928 554.747 198.928 549.576 198.928 543.833C204.805 543.833 210.732 543.833 217.174 543.833Z" fill="white"/>
<path d="M486.838 555.952C487.247 559.112 486.512 560.27 483.376 560.236C467.621 560.067 451.863 560.158 435.383 560.158C435.383 555.594 435.05 551.052 435.616 546.622C435.758 545.507 438.767 543.978 440.477 543.955C455.708 543.746 470.944 543.833 486.838 543.833C486.838 547.8 486.838 551.63 486.838 555.952Z" fill="white"/>
<path d="M546.535 560.159C539.53 560.159 533.039 560.159 525.951 560.159C525.951 555.615 525.706 551.242 526.117 546.931C526.225 545.8 528.357 543.985 529.581 543.968C544.316 543.761 559.056 543.749 573.791 543.99C575.016 544.01 577.094 546.134 577.246 547.453C577.705 551.454 577.412 555.541 577.412 560.159C567.138 560.159 557.094 560.159 546.535 560.159Z" fill="white"/>
<path d="M288.6 559.752C288.231 555.841 288.425 552.262 288.131 548.723C287.839 545.208 289.444 543.846 292.681 543.842C306.883 543.824 321.085 543.807 335.287 543.858C338.132 543.868 339.986 544.88 339.719 548.335C339.433 552.034 339.654 555.772 339.654 560.101C322.665 560.101 305.807 560.101 288.6 559.752Z" fill="white"/>
<path d="M648.431 598.951C648.431 595.064 648.431 591.685 648.431 588.008C652.477 588.008 656.327 588.008 660.782 588.008C660.782 591.903 660.782 595.918 660.782 599.933C660.782 615.57 660.59 631.211 660.894 646.842C660.99 651.748 659.612 653.769 654.595 653.05C652.769 652.788 650.873 653.008 648.431 653.008C648.431 635.021 648.431 617.24 648.431 598.951Z" fill="white"/>
<path d="M124.538 649.74C123.238 650.817 121.979 651.766 120.633 651.909C118.09 652.18 115.497 651.988 112.557 651.988C112.557 630.765 112.557 609.602 112.557 588.072C116.111 588.072 119.962 588.072 124.54 588.072C124.54 608.268 124.54 628.758 124.538 649.74Z" fill="white"/>
<path d="M143.066 632.354C143.066 617.373 143.066 602.874 143.066 588.041C148.074 588.041 151.919 588.041 155.813 588.041C155.813 609.032 155.813 630.224 155.813 651.7C151.349 651.7 147.504 651.7 143.066 651.7C143.066 645.46 143.066 639.147 143.066 632.354Z" fill="white"/>
<path d="M648.431 534.631C648.431 517.145 648.431 500.168 648.431 482.903C652.501 482.903 656.351 482.903 660.494 482.903C660.494 503.659 660.494 524.478 660.494 545.586C656.71 545.586 652.86 545.586 648.431 545.586C648.431 542.159 648.431 538.649 648.431 534.631Z" fill="white"/>
<path d="M149.287 545.874C147.434 545.874 146.077 545.874 144.41 545.874C144.41 524.879 144.41 504.057 144.41 482.924C148.122 482.924 151.973 482.924 156.139 482.924C156.139 503.621 156.139 524.443 156.139 545.874C154.095 545.874 151.939 545.874 149.287 545.874Z" fill="white"/>
<path d="M124.54 526.487C124.54 533.095 124.54 539.193 124.54 545.582C120.477 545.582 116.627 545.582 112.48 545.582C112.48 524.836 112.48 504.018 112.48 482.906C116.252 482.906 120.102 482.906 124.54 482.906C124.54 497.212 124.54 511.594 124.54 526.487Z" fill="white"/>
<path d="M630.934 496.038C630.934 512.843 630.934 529.155 630.934 545.668C626.052 545.668 622.545 545.668 618.81 545.668C618.81 524.75 618.81 503.976 618.81 482.908C622.291 482.908 625.79 482.908 629.551 482.908C630.003 487.04 630.469 491.293 630.934 496.038Z" fill="white"/>
<path d="M618.583 598.951C618.583 595.066 618.583 591.688 618.583 588.01C622.283 588.01 625.787 588.01 630.114 588.01C630.114 609.112 630.114 630.333 630.114 651.766C626.926 651.766 623.042 651.766 618.583 651.766C618.583 634.328 618.583 616.893 618.583 598.951Z" fill="white"/>
<path d="M366.415 554.993C366.415 543.833 366.415 543.833 377.237 543.833C387.46 543.833 397.683 543.833 408.26 543.833C408.26 549.176 408.26 554.46 408.26 559.955C394.452 559.955 380.695 559.955 366.415 559.955C366.415 558.41 366.415 556.947 366.415 554.993Z" fill="white"/>
<path d="M596.837 196.923C562.782 196.923 529.229 196.879 495.676 196.978C491.528 196.991 488.636 196.503 490.271 191.09C527.223 191.09 564.444 191.09 601.89 191.09C601.89 192.914 601.89 194.685 601.89 196.923C600.327 196.923 598.833 196.923 596.837 196.923Z" fill="white"/>
<path d="M217.173 196.923C203.821 196.923 190.98 196.781 178.147 197.001C173.769 197.076 171.963 195.729 173.23 191.087C210.211 191.087 247.43 191.087 284.877 191.087C284.877 192.91 284.877 194.681 284.877 196.923C262.438 196.923 240.063 196.923 217.173 196.923Z" fill="white"/>
<path d="M462.136 613.222C462.136 608.316 462.136 603.919 462.136 599.658C462.621 599.335 462.889 599.001 463.156 599.001C477.03 598.978 474.309 597.447 474.45 609.674C474.61 623.585 474.487 637.499 474.487 651.699C470.417 651.699 466.569 651.699 462.136 651.699C462.136 639.09 462.136 626.41 462.136 613.222Z" fill="white"/>
<path d="M210.997 631.581C210.997 622.409 211.278 613.735 210.889 605.09C210.667 600.167 212.18 598.174 217.184 598.889C219.01 599.15 220.905 598.931 223.348 598.931C223.348 605.686 223.348 612.247 223.348 618.807C223.348 628.488 223.167 638.173 223.421 647.847C223.557 653.037 220.105 651.974 217.191 651.958C214.309 651.941 210.679 653.105 210.94 647.883C211.202 642.631 210.997 637.356 210.997 631.581Z" fill="white"/>
<path d="M538.301 638.701C538.301 627.155 538.55 616.107 538.188 605.078C538.025 600.14 539.515 598.183 544.499 598.889C546.326 599.148 548.221 598.931 550.652 598.931C550.652 606.206 550.652 613.278 550.652 620.349C550.652 629.521 550.469 638.698 550.723 647.863C550.867 653.066 547.378 651.959 544.478 651.958C541.582 651.956 537.865 653.072 538.262 647.866C538.48 644.995 538.301 642.094 538.301 638.701Z" fill="white"/>
<path d="M460.077 614.24C460.077 626.967 460.077 639.185 460.077 651.695C456.358 651.695 452.852 651.695 449.047 651.695C449.047 634.355 449.047 616.937 449.047 599.224C452.474 599.224 455.981 599.224 460.077 599.224C460.077 603.999 460.077 608.864 460.077 614.24Z" fill="white"/>
<path d="M564.032 646.641C564.587 650.929 562.942 652.452 559.106 652.024C557.243 651.816 555.338 651.988 553.081 651.988C553.081 634.386 553.081 616.848 553.081 599.119C556.518 599.119 559.906 599.119 564.032 599.119C564.032 614.708 564.032 630.433 564.032 646.641Z" fill="white"/>
<path d="M225.407 638.714C225.407 625.311 225.407 612.416 225.407 599.227C229.12 599.227 232.625 599.227 236.729 599.227C236.729 607.389 236.729 615.65 236.729 623.912C236.729 631.39 236.472 638.88 236.825 646.341C237.038 650.844 235.599 652.652 231.047 652.025C229.386 651.796 227.666 651.988 225.407 651.988C225.407 647.605 225.407 643.414 225.407 638.714Z" fill="white"/>
<path d="M381.036 580.565C386.071 580.565 390.681 580.292 395.244 580.629C402.411 581.159 407 588.061 406.168 596.721C393.771 596.721 381.358 596.721 368.953 596.721C368.125 587.164 371.784 582.123 381.036 580.565Z" fill="white"/>
<path d="M649.49 267.323C646.887 266.983 644.757 266.368 642.622 266.351C630.675 266.256 618.727 266.305 606.507 266.305C606.507 264.288 606.507 262.521 606.507 260.293C617.454 258.773 628.45 258.493 639.553 260.111C650.611 261.724 661.73 262.939 672.832 264.247C678.194 264.879 680.323 267.001 680.157 272.466C670.05 270.746 660.005 269.035 649.49 267.323Z" fill="white"/>
<path d="M148.249 259.163C155.307 259.163 161.857 259.163 168.601 259.163C168.601 262.296 168.601 264.09 168.601 266.305C156.18 266.305 143.808 265.535 131.582 266.525C119.724 267.486 108.015 270.255 95.9807 272.273C95.9807 270.439 95.9807 268.641 95.9807 266.525C112.761 261.321 130.171 259.712 148.249 259.163Z" fill="white"/>
<path d="M472.437 196.923C460.247 191.468 448.485 185.993 436.663 180.647C426.984 176.27 417.176 172.166 407.579 167.621C406.246 166.99 405.794 164.529 404.934 162.915C405.326 162.607 405.718 162.298 406.11 161.99C411.903 164.488 417.725 166.924 423.485 169.497C440.864 177.258 458.226 185.058 475.576 192.882C478.118 194.029 480.722 195.16 482.995 196.729C484.434 197.723 485.312 199.514 486.442 200.948C486.024 201.441 485.606 201.935 485.188 202.428C481.072 200.605 476.955 198.783 472.437 196.923Z" fill="white"/>
<path d="M354.019 173.458C332.382 183.088 311.148 192.68 289.795 202.326C288.437 198.701 289.466 197.096 292.779 195.662C315.082 186.01 337.278 176.116 359.487 166.254C362.591 164.875 365.581 163.243 368.992 161.545C369.741 167.912 364.829 168.387 361.644 170.243C359.387 171.557 356.839 172.379 354.019 173.458Z" fill="white"/>
<path d="M473.457 589.041C473.835 591.737 474.212 593.999 474.644 596.592C465.996 596.592 457.588 596.592 449.186 596.592C448.118 587.567 450.64 581.736 456.074 580.586C465.684 578.551 470.751 580.889 473.457 589.041Z" fill="white"/>
<path d="M236.729 593.953C235.69 595.242 234.672 596.75 233.61 596.78C226.298 596.989 218.976 596.89 211.697 596.89C210.047 589.1 213.731 581.209 219.272 580.578C232.778 579.041 235.396 583.407 236.729 593.953Z" fill="white"/>
<path d="M560.941 583.632C562.312 588.017 563.64 591.991 565.179 596.599C555.488 596.599 547.035 596.599 538.137 596.599C539.215 590.969 538.116 584.302 544.341 581.509C549.729 579.092 555.744 579.198 560.941 583.632Z" fill="white"/>
<path d="M325.239 587.052C325.724 590.395 326.196 593.312 326.728 596.599C318.167 596.599 310.189 596.599 302.187 596.599C300.211 586.974 302.378 583.242 307.301 580.836C313.288 577.909 322.284 581.191 325.239 587.052Z" fill="white"/>
<path d="M310.847 474.451C306.586 474.451 302.837 474.451 298.786 474.451C298.786 470.779 298.786 467.304 298.786 463.525C308.7 463.525 318.722 463.525 328.825 463.525C328.941 463.69 329.284 463.949 329.287 464.212C329.413 476.668 330.347 474.219 319.585 474.443C316.844 474.5 314.101 474.451 310.847 474.451Z" fill="white"/>
<path d="M471.148 463.228C477.8 462.365 476.27 466.785 476.586 470.13C476.957 474.061 474.838 474.554 471.593 474.5C463.074 474.357 454.551 474.451 445.852 474.451C445.852 470.667 445.852 467.31 445.852 463.228C454.029 463.228 462.345 463.228 471.148 463.228Z" fill="white"/>
<path d="M211.209 474.449C210.122 472.835 209.264 471.263 209.008 469.599C208.71 467.659 208.939 465.639 208.939 463.444C218.949 463.444 228.586 463.444 238.506 463.444C238.506 466.928 238.506 470.388 238.506 474.451C229.635 474.451 220.67 474.451 211.209 474.449Z" fill="white"/>
<path d="M556.787 463.228C560.021 463.228 562.746 463.228 565.78 463.228C565.78 466.885 565.78 470.362 565.78 474.148C556.227 474.148 546.544 474.148 536.551 474.148C536.551 470.79 536.551 467.313 536.551 463.228C543.038 463.228 549.658 463.228 556.787 463.228Z" fill="white"/>
<path d="M396.171 463.228C398.374 463.228 400.075 463.228 402.107 463.228C402.107 466.845 402.107 470.321 402.107 474.129C392.616 474.129 382.931 474.129 372.917 474.129C372.917 470.824 372.917 467.347 372.917 463.228C380.377 463.228 388.023 463.228 396.171 463.228Z" fill="white"/>
<path d="M394.203 147.947C400.165 147.947 405.612 147.947 411.457 147.947C411.564 149.878 411.662 151.652 411.778 153.755C395.668 153.755 379.721 153.755 363.55 153.755C363.55 151.957 363.55 150.189 363.55 147.947C373.636 147.947 383.663 147.947 394.203 147.947Z" fill="white"/>
<path d="M309.81 574.485C307.674 570.431 305.573 566.769 303.165 562.571C310.747 562.571 317.731 562.571 325.05 562.571C322.599 567.128 320.332 571.811 317.628 576.23C315.345 579.961 312.567 579.374 309.81 574.485Z" fill="white"/>
<path d="M457.27 574.141C455.036 570.117 453.046 566.405 450.886 562.376C458.213 562.376 465.11 562.376 472.581 562.376C470.014 567.402 467.731 572.301 465.043 576.971C463.368 579.884 460.139 578.735 457.27 574.141Z" fill="white"/>
<path d="M542.152 562.308C548.984 562.212 555.379 562.212 562.413 562.212C559.986 567.081 558.035 571.364 555.752 575.465C553.646 579.246 550.636 579.455 548.417 575.763C545.856 571.503 543.92 566.873 542.152 562.308Z" fill="white"/>
<path d="M225.364 562.199C228.708 562.199 231.556 562.199 235.014 562.199C232.309 567.29 230.221 572.09 227.225 576.245C226.478 577.281 221.508 577.134 220.693 575.986C217.731 571.814 215.708 566.988 213.223 562.199C217.377 562.199 221.122 562.199 225.364 562.199Z" fill="white"/>
<path d="M637.109 666.272C647.353 666.272 657.083 666.272 666.812 666.272C667.035 666.818 667.258 667.363 667.481 667.908C665.925 668.723 664.379 670.226 662.813 670.245C648.096 670.426 633.376 670.389 618.658 670.294C617.256 670.285 615.86 669.462 614.19 667.797C615.668 667.289 617.134 666.384 618.625 666.342C624.611 666.174 630.604 666.272 637.109 666.272Z" fill="white"/>
<path d="M131.745 670.354C124.57 670.353 117.906 670.493 111.255 670.252C109.659 670.194 108.109 668.873 106.538 668.132C106.741 667.612 106.945 667.091 107.149 666.571C124.125 666.571 141.101 666.571 158.322 666.571C158.979 669.948 156.997 670.397 154.287 670.375C146.945 670.313 139.602 670.354 131.745 670.354Z" fill="white"/>
<path d="M557.846 670.354C548.592 670.353 539.847 670.448 531.11 670.248C529.855 670.219 528.634 668.767 527.398 667.975C527.639 667.501 527.881 667.027 528.122 666.553C543.468 666.553 558.813 666.553 574.158 666.553C570.021 672.666 563.684 669.373 557.846 670.354Z" fill="white"/>
<path d="M393.174 572.396C392.337 574.239 391.539 575.673 390.666 577.242C386.85 578.3 384.55 577.351 383.47 572.783C382.641 569.277 380.285 566.125 378.406 562.418C385.02 562.418 391.033 562.418 397.486 562.418C395.969 565.817 394.591 568.903 393.174 572.396Z" fill="white"/>
<path d="M218.204 666.272C228.106 666.272 237.494 666.272 246.881 666.272C247.103 666.819 247.326 667.366 247.548 667.913C245.989 668.726 244.442 670.221 242.871 670.245C230.208 670.437 217.539 670.436 204.876 670.246C203.301 670.222 201.747 668.744 200.184 667.939C200.4 667.384 200.615 666.828 200.831 666.272C206.451 666.272 212.07 666.272 218.204 666.272Z" fill="white"/>
<path d="M292.761 666.287C307.412 666.274 321.587 666.274 336.18 666.274C336.308 667.505 336.432 668.699 336.604 670.352C322.291 670.352 308.322 670.394 294.353 670.318C291.464 670.303 290.29 668.996 292.761 666.287Z" fill="white"/>
<path d="M456.993 670.354C452.031 670.353 447.565 670.575 443.142 670.244C441.369 670.111 439.689 668.761 438.254 667.385C451.725 664.973 482.162 665.996 485.419 668.864C475.864 671.764 466.578 669.705 456.993 670.354Z" fill="white"/>
<path d="M389.055 677.496C383.225 677.496 377.903 677.607 372.593 677.424C371.121 677.373 369.68 676.45 368.224 675.927C368.365 675.51 368.506 675.092 368.647 674.675C381.226 674.675 393.805 674.675 406.383 674.675C406.444 675.145 406.505 675.614 406.565 676.083C401.304 679.14 395.187 676.724 389.055 677.496Z" fill="white"/>
<path d="M211.745 570.662C213.417 573.638 214.845 576.304 216.273 578.971C215.804 579.332 215.335 579.694 214.866 580.056C210.045 574.463 205.224 568.87 200.188 563.027C207.217 561.503 207.217 561.503 211.745 570.662Z" fill="white"/>
<path d="M446.701 573.468C443.887 569.811 441.105 566.527 438.253 563.161C443.694 561.507 443.837 561.419 446.418 565.549C449.148 569.917 451.569 574.475 454.124 578.95C453.691 579.303 453.257 579.657 452.824 580.01C450.794 577.954 448.764 575.897 446.701 573.468Z" fill="white"/>
<path d="M471.084 574.245C472.771 571.585 474.509 569.324 475.492 566.777C477.165 562.445 480.079 561.31 484.874 562.595C480.019 568.539 475.316 574.294 470.614 580.05C470.144 579.774 469.673 579.499 469.203 579.224C469.733 577.654 470.264 576.085 471.084 574.245Z" fill="white"/>
<path d="M541.724 574.267C542.473 576.048 542.93 577.563 543.387 579.077C542.987 579.383 542.588 579.689 542.189 579.995C537.455 574.271 532.721 568.547 527.556 562.303C530.481 562.303 532.48 562.303 534.527 562.303C536.823 566.193 539.127 570.097 541.724 574.267Z" fill="white"/>
<path d="M560.106 575.793C562.277 572.25 564.477 569.127 566.018 565.713C567.836 561.686 570.751 561.857 574.893 562.538C569.781 568.766 565.096 574.475 560.41 580.183C559.877 579.878 559.344 579.574 558.811 579.269C559.155 578.208 559.499 577.147 560.106 575.793Z" fill="white"/>
<path d="M323.188 575.442C324.814 572.39 326.942 569.896 327.876 567.021C329.509 561.99 332.803 561.493 337.519 562.543C332.468 568.539 327.584 574.337 322.7 580.135C322.284 579.863 321.868 579.591 321.452 579.319C322.019 578.155 322.586 576.992 323.188 575.442Z" fill="white"/>
<path d="M299.506 566.224C301.787 570.663 304.031 574.706 306.276 578.749C305.731 579.118 305.187 579.486 304.643 579.855C299.942 574.216 295.242 568.577 290.478 562.862C296.186 561.798 296.186 561.798 299.506 566.224Z" fill="white"/>
<path d="M244.715 565.921C240.602 570.791 236.707 575.341 232.813 579.891C232.284 579.572 231.756 579.253 231.227 578.934C234.094 573.708 236.673 568.288 240.016 563.381C240.928 562.043 244.141 562.246 247.043 561.567C246.052 563.462 245.492 564.531 244.715 565.921Z" fill="white"/>
<path d="M404.764 567.621C401.915 571.639 399.297 575.351 396.68 579.063C396.035 578.649 395.39 578.235 394.745 577.822C397.159 572.949 399.289 567.9 402.177 563.322C402.949 562.097 406.038 562.308 409.066 561.638C407.267 564.148 406.131 565.731 404.764 567.621Z" fill="white"/>
<path d="M377.752 572.275C378.752 574.461 379.735 576.249 380.718 578.036C373.738 575.176 371.977 568.03 366.364 562.674C369.314 562.674 371.159 562.674 373.133 562.674C374.583 565.572 376.16 568.724 377.752 572.275Z" fill="white"/>
<path d="M305.667 244.746C305.145 237.45 304.691 230.604 304.279 224.399C318.539 217.749 331.987 211.381 345.524 205.204C353.216 201.694 360.931 198.157 368.884 195.316C372.343 194.081 372.599 192.119 372.592 189.38C372.585 186.671 372.59 183.961 372.59 180.925C382.398 180.925 392.082 180.925 402.439 180.925C402.439 183.196 402.91 185.781 402.343 188.119C401.054 193.438 404.74 195.166 408.321 196.794C418.575 201.455 428.912 205.94 439.243 210.435C449.517 214.904 459.822 219.301 470.234 223.781C470.234 230.206 470.234 236.65 470.234 243.852C465.869 244.188 461.391 244.826 456.911 244.833C409.584 244.906 362.256 244.872 314.928 244.892C311.864 244.893 308.799 245.09 305.667 244.746ZM399.351 204.757C398.551 203.846 397.775 202.171 396.948 202.146C389.978 201.935 382.998 202.026 375.68 202.026C375.68 211.447 375.559 220.42 375.832 229.38C375.866 230.496 377.945 232.431 379.147 232.487C385.763 232.793 392.401 232.633 399.351 232.633C399.351 223.354 399.351 214.552 399.351 204.757Z" fill="white"/>
<path d="M378.768 208.348C379.728 207.272 380.668 206.223 381.647 206.185C386.268 206.007 390.9 206.106 395.895 206.106C395.895 213.385 395.895 220.605 395.895 228.191C390.633 228.191 385.062 228.191 378.766 228.191C378.766 221.938 378.766 215.389 378.768 208.348Z" fill="white"/>
<path d="M18 20.1875L18 17H757V640.862C757 721.305 713.668 807.97 645.498 874.971C577.437 941.862 486.778 987 395.078 987C153.623 987 17.9997 798.356 18 634.416C18.0001 548.198 18.0001 389.594 18.0001 252.544L18 74.8786L18 20.1875Z" stroke="white" stroke-width="34"/>
</g>
<defs>
<clipPath id="clip0_2_50">
<rect width="774" height="1004" fill="white"/>
</clipPath>
</defs>
</svg>
