<svg width="1082" height="1206" viewBox="0 0 1082 1206" fill="none" xmlns="http://www.w3.org/2000/svg">
<g clip-path="url(#clip0_19_151)">
<path d="M649.072 795.829C649.072 744.67 649.072 694.02 649.072 642.782C656.755 642.782 664.238 642.66 671.706 642.921C672.772 642.958 674.069 644.704 674.705 645.939C675.191 646.884 674.803 648.271 674.803 649.461C674.803 724.788 674.803 800.115 674.803 875.441C674.803 877.287 674.803 879.132 674.803 881.307C676.512 881.391 677.993 881.526 679.474 881.527C696.969 881.542 714.465 881.522 731.961 881.55C735.059 881.555 737.565 881.4 735.621 877.163C735.104 876.034 735.53 874.477 735.53 873.117C735.529 814.794 735.529 756.471 735.529 698.148C735.529 679.925 735.529 661.701 735.529 642.79C744.284 642.79 751.926 642.649 759.549 642.965C760.514 643.005 762.177 645.441 762.165 646.754C762.057 658.22 761.574 669.683 761.371 681.149C761.327 683.595 762.247 686.053 762.249 688.505C762.3 752.606 762.29 816.707 762.29 881.173C784.74 881.173 807.115 881.173 829.856 881.173C829.856 812.686 829.856 743.919 829.856 674.616C809.376 668.867 788.001 670.634 766.618 670.276C766.618 668.906 766.618 667.81 766.618 666.362C785.262 664.12 803.704 665.403 822.108 668.241C823.281 668.422 824.506 668.261 825.706 668.292C831.629 668.443 833.308 670.126 833.308 675.899C833.308 743.404 833.251 810.909 833.423 878.414C833.436 883.46 831.662 884.697 827.021 884.663C806.267 884.513 785.512 884.598 764.757 884.598C598.918 884.598 433.079 884.598 267.24 884.598C261.54 884.598 255.84 884.598 249.924 884.598C249.924 812.435 249.924 741.575 249.924 669.842C271.742 665.491 293.762 664.091 316.123 666.344C317.457 669.541 316.309 670.43 313.081 670.381C303.477 670.236 293.849 669.931 284.271 670.444C275.076 670.935 265.934 672.395 256.763 673.378C253.683 673.708 252.733 675.191 252.737 678.315C252.831 744.46 252.827 810.605 252.755 876.75C252.751 880.108 253.486 881.635 257.296 881.608C278.555 881.459 299.816 881.537 321.481 881.537C321.481 802.101 321.481 722.787 321.481 642.79C329.503 642.79 337.143 642.688 344.773 642.92C345.709 642.949 346.893 644.629 347.406 645.785C347.849 646.783 347.5 648.126 347.5 649.316C347.5 724.643 347.5 799.97 347.5 875.297C347.5 877.155 347.5 879.014 347.5 881.187C348.74 881.311 349.867 881.521 350.995 881.522C368.662 881.543 386.33 881.51 403.997 881.56C407.373 881.569 410.352 881.626 408.296 876.806C407.865 875.796 408.226 874.452 408.226 873.262C408.226 814.769 408.226 756.276 408.226 697.783C408.226 679.679 408.226 661.576 408.226 642.79C416.991 642.79 424.632 642.688 432.262 642.92C433.198 642.949 434.38 644.63 434.893 645.788C435.335 646.786 434.986 648.128 434.986 649.319C434.987 724.645 434.987 799.972 434.987 875.299C434.987 877.157 434.987 879.016 434.987 881.205C456.817 881.205 478.506 881.205 500.859 881.205C500.859 879.604 500.859 877.813 500.859 876.022C500.859 800.355 500.843 724.688 500.942 649.022C500.945 646.952 501.982 643.214 502.885 643.105C506.674 642.649 510.618 643.133 514.439 643.703C514.916 643.774 515.229 646.414 515.234 647.865C515.288 665.039 515.268 682.213 515.268 699.387C515.268 758.05 515.268 816.713 515.268 875.376C515.268 877.227 515.268 879.078 515.268 881.232C533.038 881.232 550.609 881.232 568.588 881.232C568.588 802.018 568.588 722.704 568.588 643.658C569.255 643.198 569.522 642.853 569.788 642.854C585.098 642.903 582.095 640.862 582.116 654.533C582.23 728.159 582.17 801.785 582.17 875.412C582.17 877.26 582.17 879.108 582.17 881.245C604.426 881.245 626.456 881.245 649.072 881.245C649.072 852.986 649.072 824.663 649.072 795.829ZM341.324 780.014C341.324 811.292 341.295 842.569 341.385 873.846C341.392 876.118 342.269 878.388 342.741 880.659C343.197 880.547 343.652 880.435 344.108 880.323C344.108 817.876 344.108 755.429 344.108 693.08C337.207 693.08 330.614 693.08 323.935 693.08C323.89 694.04 323.832 694.701 323.832 695.363C323.827 755.708 323.827 816.053 323.828 876.398C323.828 877.248 323.543 878.267 323.916 878.904C324.372 879.683 325.385 880.143 327.002 881.396C327.002 819.083 327.002 758.138 327.002 697.049C332.295 697.049 337.201 697.049 341.324 697.049C341.324 724.486 341.324 751.74 341.324 780.014ZM668.627 761.648C668.628 800.202 668.615 838.755 668.69 877.309C668.692 878.461 669.621 879.611 670.117 880.763C670.531 880.56 670.944 880.358 671.357 880.155C671.357 817.728 671.357 755.302 671.357 693.132C664.4 693.132 657.805 693.132 651.413 693.132C651.413 755.801 651.413 818.116 651.413 880.43C652.003 880.553 652.592 880.675 653.182 880.798C653.527 879.17 654.173 877.543 654.174 875.916C654.227 819.492 654.212 763.068 654.235 706.645C654.236 703.459 653.522 699.701 654.981 697.314C655.795 695.983 660.407 696.934 663.307 696.857C663.478 696.852 663.675 696.909 663.817 696.844C668.489 694.717 668.672 697.489 668.66 700.975C668.593 720.859 668.627 740.744 668.627 761.648ZM414.401 754.506C414.401 735.364 414.401 716.221 414.401 697.15C419.525 697.15 424.06 697.15 428.811 697.15C428.811 699.286 428.811 701.136 428.811 702.985C428.811 760.28 428.811 817.575 428.812 874.869C428.812 876.229 428.551 877.669 428.926 878.92C429.152 879.677 430.37 880.143 431.651 881.132C431.651 817.713 431.651 755.403 431.651 693.006C425.135 693.006 418.87 693.006 412.343 693.006C412.343 699.153 412.44 705.066 412.324 710.975C412.039 725.482 411.53 739.987 411.379 754.495C411.322 759.991 412.281 765.494 412.297 770.995C412.391 803.128 412.346 835.261 412.332 867.393C412.332 868.909 412.125 870.425 412.104 871.942C412.066 874.787 412.093 877.633 412.093 880.478C412.863 880.457 413.632 880.436 414.401 880.415C414.401 838.785 414.401 797.156 414.401 754.506ZM741.705 710.64C741.705 706.108 741.705 701.576 741.705 696.581C746.794 696.581 751.319 696.581 756.114 696.581C756.114 699.12 756.114 700.974 756.114 702.829C756.114 760.281 756.114 817.733 756.114 875.186C756.114 876.375 755.909 877.618 756.198 878.735C756.375 879.42 757.313 879.911 757.91 880.49C758.338 879.915 759.029 879.385 759.139 878.755C759.34 877.6 759.202 876.385 759.202 875.196C759.202 816.894 759.202 758.592 759.202 700.29C759.202 699.1 759.286 697.902 759.182 696.722C758.951 694.092 757.972 692.487 754.77 692.708C750.675 692.991 746.542 692.861 742.43 692.748C739.521 692.668 738.9 694.243 738.999 696.667C739.242 702.666 739.612 708.667 739.618 714.667C739.667 765.32 739.667 815.974 739.602 866.627C739.597 870.282 738.828 873.932 738.7 877.594C738.663 878.655 739.623 879.751 740.126 880.831C740.652 880.663 741.178 880.494 741.705 880.326C741.705 824.103 741.705 767.88 741.705 710.64Z" fill="#122F54"/>
<path d="M501.888 610.13C482.191 610.13 463.009 610.13 443.524 610.13C443.524 543.206 443.524 476.489 443.524 409.349C455.814 403.827 468.44 398.269 480.966 392.496C495.42 385.833 509.815 379.042 524.136 372.102C525.343 371.517 526.305 369.453 526.482 367.969C526.844 364.957 526.59 361.871 526.59 358.463C536.348 358.463 546.031 358.463 556.141 358.463C556.141 362.349 556.141 366.506 556.141 370.826C584.116 383.79 611.805 396.621 640.179 409.77C640.179 476.125 640.179 542.861 640.179 610.13C593.834 610.13 548.119 610.13 501.888 610.13ZM553.786 378.516C543.403 378.516 533.02 378.516 522.473 378.516C522.473 382.185 522.099 385.287 522.57 388.257C523.136 391.829 521.155 393.573 518.557 394.76C507.878 399.639 497.144 404.402 486.377 409.088C476.685 413.306 466.885 417.282 457.242 421.604C456.005 422.159 454.708 424.134 454.663 425.491C454.413 432.96 454.424 440.446 454.682 447.914C454.718 448.953 456.616 450.788 457.651 450.787C462.502 450.786 467.352 449.993 472.204 449.983C510.431 449.904 548.659 449.939 586.887 449.939C600.635 449.939 614.384 449.939 628.487 449.939C628.487 442.845 628.223 435.04 628.612 427.268C628.775 424.011 626.961 422.563 624.839 421.644C617.674 418.539 610.239 416.039 603.102 412.879C589.866 407.017 576.718 400.952 563.677 394.677C562.169 393.952 560.928 391.444 560.693 389.62C560.228 386.017 560.556 382.314 560.556 378.516C558.193 378.516 556.492 378.516 553.786 378.516ZM554.792 542.789C556.615 542.789 558.439 542.789 560.307 542.789C560.307 537.109 560.307 531.942 560.307 526.94C559.923 526.692 559.787 526.529 559.651 526.528C551.093 526.498 542.535 526.509 533.977 526.457C519.324 526.37 522.992 526.398 522.426 538.139C522.256 541.665 523.433 542.945 527.086 542.858C535.981 542.646 544.886 542.789 554.792 542.789ZM595.098 526.464C592.597 526.464 590.096 526.464 587.558 526.464C587.558 532.146 587.558 537.305 587.558 542.313C599.935 542.313 612.068 542.313 624.369 542.313C624.369 538.273 624.227 534.381 624.414 530.503C624.566 527.351 623.241 526.365 620.187 526.417C612.164 526.555 604.136 526.464 595.098 526.464ZM482.836 526.464C476.159 526.464 469.48 526.573 462.806 526.415C459.692 526.342 458.47 527.445 458.616 530.557C458.798 534.448 458.66 538.353 458.66 542.308C471.05 542.308 483.288 542.308 495.406 542.308C495.406 536.994 495.406 531.825 495.406 526.464C491.353 526.464 487.606 526.464 482.836 526.464ZM594.164 483.61C603.173 483.61 612.182 483.61 620.926 483.61C620.926 478.754 620.926 474.598 620.926 470.698C610.541 470.698 600.514 470.698 590.404 470.698C590.404 474.276 590.181 477.526 590.531 480.713C590.646 481.761 592.246 482.649 594.164 483.61ZM525.561 478.942C525.561 480.408 525.561 481.875 525.561 483.34C536.126 483.34 546.151 483.34 556.163 483.34C556.163 478.91 556.163 474.754 556.163 470.621C545.86 470.621 535.835 470.621 525.561 470.621C525.561 473.249 525.561 475.604 525.561 478.942ZM461.748 473.058C461.748 476.545 461.748 480.032 461.748 483.257C472.488 483.257 482.516 483.257 492.263 483.257C492.263 478.738 492.263 474.583 492.263 470.346C482.986 470.346 474.071 470.284 465.159 470.422C464.015 470.44 462.887 471.499 461.748 473.058ZM546.626 570.338C549.825 570.338 553.023 570.338 556.153 570.338C556.153 565.616 556.153 561.461 556.153 557.355C545.842 557.355 535.82 557.355 525.848 557.355C525.848 561.798 525.848 565.954 525.848 570.338C532.625 570.338 539.116 570.338 546.626 570.338ZM476.672 557.073C471.766 557.073 466.86 557.073 462.043 557.073C462.043 561.817 462.043 565.972 462.043 570.047C472.364 570.047 482.386 570.047 492.329 570.047C492.329 565.595 492.329 561.44 492.329 557.073C487.256 557.073 482.478 557.073 476.672 557.073ZM621.282 564.906C621.047 562.305 620.812 559.704 620.598 557.339C610.423 557.339 600.547 557.339 590.673 557.339C590.673 561.764 590.673 565.917 590.673 570.083C600.968 570.083 610.993 570.083 621.282 570.083C621.282 568.507 621.282 567.174 621.282 564.906ZM538.199 574.479C534.002 574.479 529.804 574.479 525.759 574.479C525.759 583.624 525.759 592.081 525.759 600.74C530.147 600.74 534.337 600.74 538.885 600.74C538.885 592.101 538.885 583.645 538.199 574.479ZM538.941 509.526C538.941 502.63 538.941 495.734 538.941 489.043C534.081 489.043 529.89 489.043 525.896 489.043C525.896 497.957 525.896 506.536 525.896 515.086C530.302 515.086 534.372 515.086 538.941 515.086C538.941 513.467 538.941 511.995 538.941 509.526ZM461.747 508.532C461.747 510.682 461.747 512.831 461.747 514.972C466.137 514.972 469.986 514.972 473.828 514.972C473.828 506.124 473.828 497.548 473.828 488.982C469.703 488.982 465.855 488.982 461.747 488.982C461.747 495.342 461.747 501.434 461.747 508.532ZM492.621 513.488C492.621 505.244 492.621 497 492.621 488.905C488.145 488.905 484.415 488.905 480.485 488.905C480.485 497.676 480.485 506.253 480.485 515.554C484.665 515.179 488.617 514.825 492.621 513.488ZM601.019 488.716C597.505 488.716 593.991 488.716 590.77 488.716C590.77 498.022 590.77 506.605 590.77 514.87C594.991 514.87 598.842 514.87 602.008 514.87C602.008 505.92 602.008 497.346 601.019 488.716ZM620.547 488.773C616.694 488.773 612.84 488.773 609.309 488.773C609.309 498.036 609.309 506.615 609.309 515.044C613.417 515.044 617.146 515.044 621.226 515.044C621.226 506.398 621.226 497.942 620.547 488.773ZM492.625 598.208C492.625 590.297 492.625 582.387 492.625 574.784C488.044 574.784 484.195 574.784 480.642 574.784C480.642 583.734 480.642 592.317 480.642 600.947C483.582 600.947 486.175 601.14 488.718 600.869C490.064 600.726 491.323 599.776 492.625 598.208ZM544.837 574.479C544.837 583.176 544.837 591.872 544.837 600.73C548.371 600.73 552.219 600.73 556.215 600.73C556.215 591.933 556.215 583.355 556.215 574.423C552.61 574.423 549.218 574.423 544.837 574.479ZM602.006 600.887C602.006 592.191 602.006 583.494 602.006 574.636C598.472 574.636 594.624 574.636 590.628 574.636C590.628 583.433 590.628 592.011 590.628 600.943C594.233 600.943 597.624 600.943 602.006 600.887ZM610.67 574.423C610.109 574.696 609.06 574.965 609.057 575.244C608.97 583.778 608.986 592.313 608.986 600.629C613.457 600.629 617.29 600.629 621.021 600.629C621.021 591.771 621.021 583.233 621.021 574.419C617.727 574.419 614.691 574.419 610.67 574.423ZM465.462 600.947C468.3 600.947 471.137 600.947 473.761 600.947C473.761 591.695 473.761 583.114 473.761 574.76C469.567 574.76 465.717 574.76 461.747 574.76C461.747 582.743 461.648 590.387 461.868 598.023C461.897 599.021 463.563 599.974 465.462 600.947ZM556.439 505.514C556.439 499.983 556.439 494.452 556.439 488.712C553.996 488.712 552.136 488.712 550.276 488.712C548.292 488.712 546.307 488.712 544.591 488.712C544.267 489.424 544.144 489.569 544.143 489.714C544.118 494.633 544.131 499.552 544.082 504.47C543.947 517.948 544.246 514.958 555.469 515.165C555.727 515.17 555.992 514.81 556.439 514.485C556.439 511.916 556.439 509.22 556.439 505.514Z" fill="#122F54"/>
<path d="M663.481 596.819C663.481 544.458 663.552 492.6 663.368 440.742C663.35 435.745 664.816 434.464 669.725 434.525C690.303 434.783 710.887 434.703 731.468 434.57C735.088 434.546 736.645 435.316 736.637 439.334C736.52 494.933 736.557 550.532 736.547 606.131C736.547 606.612 736.425 607.094 736.29 608.089C728.278 608.089 720.278 608.089 712.279 608.089C698.07 608.089 683.856 607.871 669.655 608.206C664.617 608.325 662.728 606.793 663.447 601.907C663.667 600.408 663.481 598.851 663.481 596.819ZM707.216 541.768C711.781 541.768 716.345 541.768 720.825 541.768C720.825 536.009 720.825 530.834 720.825 525.733C708.106 525.733 695.684 525.733 683.332 525.733C683.332 531.202 683.332 536.376 683.332 541.768C691.147 541.768 698.669 541.768 707.216 541.768ZM714.241 469.325C707.767 469.256 701.239 469.681 694.835 468.982C688.059 468.244 686.126 469.329 686.125 475.917C686.124 478.052 686.125 480.187 686.125 482.377C696.648 482.377 706.634 482.377 717.001 482.377C717.001 478.665 717.107 475.149 716.92 471.648C716.877 470.848 715.823 470.101 714.241 469.325ZM686.188 556.77C686.168 559.829 685.823 562.937 686.279 565.924C686.472 567.185 688.324 569.133 689.47 569.167C698.505 569.435 707.551 569.316 716.795 569.316C716.795 564.768 716.795 560.615 716.795 556.107C706.708 556.107 696.81 556.107 686.188 556.77ZM686.125 495.387C686.125 501.242 686.125 507.097 686.125 512.95C690.853 512.95 695.028 512.95 698.991 512.95C698.991 504.155 698.991 495.61 698.991 486.998C694.915 486.998 690.597 486.998 686.125 486.998C686.125 489.677 686.125 492.031 686.125 495.387ZM688.823 600.947C691.218 600.947 693.734 601.385 695.963 600.782C697.298 600.421 699.063 598.472 699.124 597.166C699.421 590.89 699.373 584.58 699.033 578.304C698.96 576.962 697.317 574.798 696.126 574.597C693.008 574.07 689.74 574.42 686.128 574.42C686.128 582.893 686.09 590.988 686.202 599.082C686.211 599.709 687.273 600.323 688.823 600.947ZM704.652 577.194C704.652 585.075 704.652 592.956 704.652 600.625C709.173 600.625 713.012 600.625 717.002 600.625C717.002 593.376 717.131 586.445 716.917 579.524C716.86 577.682 715.39 574.245 715.179 574.291C711.693 575.051 707.545 572.663 704.652 577.194ZM712.307 486.671C709.819 486.671 707.332 486.671 704.893 486.671C704.893 495.806 704.893 504.342 704.893 512.985C708.967 512.985 712.796 512.985 717.001 512.985C717.001 504.879 716.893 496.979 717.053 489.085C717.12 485.828 714.95 486.836 712.307 486.671Z" fill="#122F54"/>
<path d="M346.471 528.504C346.471 497.417 346.471 466.84 346.471 435.959C370.753 435.959 394.836 435.959 419.234 435.959C419.234 493.034 419.234 550.228 419.234 608.089C414.869 608.089 410.317 608.014 405.769 608.103C391.159 608.388 376.55 608.754 361.939 609.044C357.859 609.125 353.762 609.249 349.697 608.98C346.752 608.785 346.396 606.639 346.407 603.975C346.514 578.988 346.471 554.001 346.471 528.504ZM399.992 529.158C400.402 526.489 399.678 525.246 396.53 525.366C389.861 525.619 383.175 525.443 376.496 525.443C361.596 525.443 361.592 525.443 361.94 540.189C361.95 540.644 362.203 541.095 362.331 541.51C374.88 541.51 387.291 541.51 399.992 541.51C399.992 537.55 399.992 533.846 399.992 529.158ZM387.083 482.589C389.927 482.589 392.771 482.589 395.678 482.589C395.678 477.895 395.678 473.727 395.678 469.152C385.353 469.152 375.234 469.152 365.318 469.152C365.318 474.147 365.318 478.288 365.318 482.589C372.446 482.589 379.254 482.589 387.083 482.589ZM395.815 568.581C395.815 564.42 395.815 560.259 395.815 556.249C385.217 556.249 375.315 556.249 365.207 556.249C365.207 560.599 365.207 564.752 365.207 569.261C375.294 569.261 385.196 569.261 395.815 568.581ZM371.691 600.947C373.846 600.947 376 600.947 378.108 600.947C378.108 591.799 378.108 583.233 378.108 574.684C373.689 574.411 369.538 574.156 365.308 573.895C365.308 582.651 365.308 591.708 365.308 600.947C367.31 600.947 369.004 600.947 371.691 600.947ZM378.378 489.406C377.579 488.495 376.842 486.872 375.97 486.797C372.446 486.496 368.88 486.672 365.233 486.672C365.233 495.71 365.233 504.286 365.233 512.963C369.662 512.963 373.853 512.963 378.378 512.963C378.378 505.287 378.378 497.843 378.378 489.406ZM383.524 502.467C383.524 505.976 383.524 509.486 383.524 512.912C387.953 512.912 391.802 512.912 395.587 512.912C395.587 504.045 395.587 495.469 395.587 486.959C391.444 486.959 387.594 486.959 383.524 486.959C383.524 491.981 383.524 496.717 383.524 502.467ZM388.219 600.947C390.707 600.947 393.195 600.947 395.634 600.947C395.634 591.812 395.634 583.276 395.634 574.633C391.56 574.633 387.731 574.633 383.525 574.633C383.525 582.739 383.634 590.639 383.473 598.533C383.407 601.79 385.577 600.782 388.219 600.947Z" fill="#122F54"/>
<path d="M766.407 653.944C766.407 651.413 766.067 649.299 766.503 647.356C766.939 645.409 768.15 643.632 769.022 641.78C769.527 641.925 770.032 642.069 770.537 642.214C770.537 636.128 770.537 630.042 770.537 623.578C771.967 623.449 773.21 623.337 774.641 623.208C774.641 619.132 774.597 615.414 774.655 611.697C774.7 608.776 773.175 608.199 770.573 608.536C768.362 608.822 765.947 609.259 763.893 608.682C759.448 607.432 760.461 602.999 760.403 600.105C760.057 582.886 760.232 565.657 760.232 547.932C774.255 546.568 786.968 546.9 799.832 547.582C809.657 548.103 819.017 550.09 828.531 551.903C832.892 552.734 834.499 554.487 834.464 559.183C834.223 590.959 834.367 622.739 834.289 654.517C834.282 657.417 833.593 660.316 833.398 661.832C810.789 660.589 788.882 659.384 766.407 658.148C766.407 657.367 766.407 655.901 766.407 653.944ZM777.729 575.949C777.729 570.743 777.729 565.536 777.729 560.427C774.321 560.427 771.502 560.427 768.757 560.427C768.757 571.003 768.757 581.284 768.757 591.471C771.874 591.471 774.693 591.471 777.729 591.471C777.729 586.442 777.729 581.705 777.729 575.949ZM805.519 568.856C805.519 576.41 805.519 583.964 805.519 591.532C807.81 591.532 809.592 591.532 811.357 591.532C811.357 580.932 811.357 570.567 811.357 560.046C809.219 560.167 807.439 560.269 805.519 560.378C805.519 563.151 805.519 565.504 805.519 568.856ZM811.694 632.038C811.694 625.804 811.694 619.57 811.694 613.133C809.315 613.237 807.523 613.315 805.519 613.402C805.519 622.934 805.404 632.096 805.657 641.247C805.691 642.463 807.593 643.629 808.63 644.818C809.651 643.613 811.32 642.522 811.557 641.181C812.023 638.542 811.694 635.766 811.694 632.038Z" fill="#122F54"/>
<path d="M249.721 563.269C249.721 554.005 249.62 553.593 257.986 551.584C265.392 549.805 273.017 548.643 280.614 548.001C290.094 547.2 299.643 547.078 309.166 546.928C313.633 546.858 318.109 547.409 322.797 547.691C322.797 567.432 322.863 586.453 322.644 605.471C322.63 606.697 320.606 608.48 319.165 608.955C317.528 609.495 315.438 609.093 313.646 608.675C310.62 607.968 309.372 609.027 309.408 612.003C309.45 615.563 309.418 619.124 309.418 623.018C310.737 623.239 311.977 623.447 313.423 623.69C313.423 629.874 313.423 635.959 313.423 642.276C317.206 642.97 318.807 644.491 316.918 648.483C316.005 650.41 315.953 653.413 316.82 655.354C318.816 659.827 315.703 659.035 313.455 659.075C308.14 659.17 302.81 658.87 297.509 659.15C281.719 659.983 265.94 661.019 249.721 662.002C249.721 629.979 249.721 596.873 249.721 563.269ZM306.33 562.886C306.33 572.453 306.33 582.02 306.33 591.482C309.741 591.482 312.549 591.482 315.375 591.482C315.375 580.965 315.375 570.73 315.375 559.289C312.043 560.253 309.188 561.079 306.33 562.886ZM277.511 570.871C277.511 567.365 277.511 563.86 277.511 560.377C275.212 560.377 273.429 560.377 271.821 560.377C271.821 570.962 271.821 581.302 271.821 591.821C273.794 591.718 275.572 591.626 277.511 591.524C277.511 584.71 277.511 578.298 277.511 570.871ZM277.511 632.055C277.511 625.837 277.511 619.62 277.511 613.396C275.199 613.396 273.379 613.396 271.335 613.396C271.335 622.349 271.536 631.103 271.257 639.842C271.099 644.795 273.246 645.548 277.511 644.362C277.511 640.485 277.511 636.776 277.511 632.055Z" fill="#122F54"/>
<path d="M645.984 444.837C645.984 431.745 646.014 419.162 645.96 406.579C645.949 403.959 646.039 401.934 649.635 401.942C684.256 402.013 718.877 401.984 754.056 401.984C754.056 403.865 754.056 405.5 754.056 407.135C754.056 472.428 754.025 537.722 754.122 603.016C754.128 607.673 753.248 610.038 747.971 608.164C746.603 607.678 744.912 608.091 742.992 608.091C742.992 548.411 742.992 488.807 742.992 428.858C714.413 428.858 686.207 428.858 657.306 428.858C657.306 430.41 657.306 432.197 657.306 433.984C657.306 490.266 657.306 546.548 657.305 602.83C657.305 608.616 653.141 611.221 647.968 608.296C646.772 607.62 646.069 605.135 646.065 603.48C645.962 561.992 645.984 520.503 645.984 479.014C645.984 467.792 645.984 456.57 645.984 444.837Z" fill="#122F54"/>
<path d="M340.295 533.606C340.295 558.573 340.295 583.029 340.295 607.788C336.594 607.788 333.087 607.788 329.274 607.788C329.274 539.814 329.274 471.736 329.274 403.331C364.871 403.331 400.616 403.331 437.045 403.331C437.045 404.914 437.045 406.701 437.045 408.489C437.045 473.082 437.045 537.675 437.045 602.269C437.045 608.66 437.046 608.634 430.713 608.109C429.212 607.984 427.692 608.09 425.818 608.09C425.818 548.237 425.818 488.645 425.818 428.783C397.256 428.783 369.057 428.783 340.295 428.783C340.295 463.539 340.295 498.317 340.295 533.606Z" fill="#122F54"/>
<path d="M806.251 474.428C813.729 475.789 820.713 477.27 827.746 478.465C832.239 479.228 834.576 480.762 834.482 486.089C834.125 506.463 834.338 526.848 834.338 548.656C809.942 542.175 785.47 541.014 760.531 543.181C760.397 541.639 760.243 540.682 760.242 539.724C760.228 519.33 760.333 498.934 760.145 478.541C760.108 474.497 761.286 473.197 765.397 473.32C774.648 473.596 783.914 473.304 793.171 473.453C797.377 473.521 801.575 474.087 806.251 474.428ZM777.729 494.488C777.605 493.244 777.481 492 777.38 490.978C774.177 490.978 771.491 490.978 768.674 490.978C768.674 501.818 768.674 512.431 768.674 523.022C777.728 523.923 777.728 523.923 777.729 515.338C777.729 508.717 777.729 502.097 777.729 494.488ZM805.519 499.474C805.519 507.367 805.519 515.261 805.519 523.171C807.802 523.171 809.584 523.171 811.358 523.171C811.358 512.231 811.358 501.525 811.358 490.664C809.227 490.785 807.443 490.887 805.519 490.996C805.519 493.77 805.519 496.122 805.519 499.474Z" fill="#122F54"/>
<path d="M318.593 473.406C321.835 472.974 322.892 473.83 322.872 476.878C322.733 498.627 322.798 520.377 322.798 543.019C298.31 541.487 274.043 541.753 249.721 548.744C249.721 539.955 249.721 532.176 249.721 524.398C249.721 511.306 249.988 498.207 249.575 485.128C249.432 480.599 251.553 479.061 255.128 478.575C268.555 476.747 281.979 474.794 295.465 473.532C302.947 472.831 310.552 473.406 318.593 473.406ZM315.593 509.62C315.593 503.393 315.593 497.166 315.593 491.047C312.181 491.047 309.361 491.047 306.623 491.047C306.623 501.966 306.623 512.587 306.623 523.107C309.743 523.107 312.563 523.107 315.593 523.107C315.593 518.756 315.593 514.696 315.593 509.62ZM271.363 516.2C271.363 518.513 271.363 520.826 271.363 523.164C273.628 523.164 275.412 523.164 277.31 523.164C277.31 512.327 277.31 501.728 277.31 490.941C275.325 490.941 273.541 490.941 271.707 490.941C271.707 499.187 271.707 507.269 271.363 516.2Z" fill="#122F54"/>
<path d="M624.366 638.699C563.84 638.699 503.829 638.699 443.52 638.699C443.52 633.655 443.52 628.82 443.52 623.687C508.699 623.687 573.955 623.687 639.51 623.687C639.51 628.439 639.51 633.274 639.51 638.699C634.694 638.699 629.787 638.699 624.366 638.699Z" fill="#122F54"/>
<path d="M510.888 1022.41C495.601 1027.06 483.681 1019.35 480.057 1004.37C477.238 992.71 483.105 978.581 495.432 973.358C504.709 969.429 519.684 973.654 525.685 981.85C530.836 988.885 532.563 996.74 532.692 1005.03C532.841 1014.67 533.381 1024.29 529.802 1033.73C523.7 1049.83 502.313 1058.95 487.371 1045.68C483.542 1042.28 480.955 1037.52 481.409 1031.69C486.494 1031.18 491.321 1030.7 496.33 1030.2C496.772 1035.46 499.53 1038.22 504.251 1038.61C508.97 1039 513.642 1035.26 515.03 1029.95C515.863 1026.77 516.04 1023.41 516.667 1019.06C514.349 1020.47 512.822 1021.4 510.888 1022.41ZM495.738 1004.12C497.3 1008.61 499.61 1012.18 505.16 1012.16C510.203 1012.14 513.075 1009.48 514.748 1005.03C516.571 1000.17 514.428 990.522 510.383 987.499C507.328 985.215 504.226 983.564 500.108 986.483C495.55 989.712 493.281 996.722 495.738 1004.12Z" fill="#122F54"/>
<path d="M631.515 1051.93C618.468 1051.7 609.004 1042.4 606.764 1030.59C604.115 1016.63 603.949 1002.89 607.914 989.199C610.351 980.782 618.46 972.819 628.821 972.209C645.807 971.208 652.924 980.723 655.985 995.575C658.726 1008.87 658.259 1022.41 653.802 1035.53C650.273 1045.92 642.572 1050.81 631.515 1051.93ZM640.838 1006.71C640.122 1001.63 639.592 996.518 638.63 991.487C637.886 987.591 634.487 984.838 631.219 984.961C627.821 985.09 623.846 987.504 623.439 991.776C622.137 1005.42 620.848 1019.02 624.148 1032.71C625.482 1038.24 628.789 1037.57 632.521 1037.66C636.375 1037.74 638.253 1035.05 638.639 1032.11C639.704 1024.01 640.148 1015.83 640.838 1006.71Z" fill="#122F54"/>
<path d="M570.488 1014.19C567.759 1014.56 565.467 1014.94 562.358 1015.45C562.822 1011.15 563.242 1007.25 563.654 1003.43C572.888 1002.25 576.181 999.132 575.995 991.985C575.889 987.929 572.676 984.895 568.165 984.592C563.396 984.271 559.083 988.549 558.128 995.251C553.244 994.476 548.375 993.704 543.334 992.904C545.513 982.957 550.049 975.434 560.305 973.169C573.862 970.176 587.893 973.15 592.075 989.794C593.193 994.242 590.64 1001.69 585.665 1005.21C584.475 1006.06 583.333 1006.97 581.805 1008.13C587.995 1010.74 592.851 1014.06 594.799 1020.93C598.214 1032.97 590.302 1046.23 578.287 1050.12C568.024 1053.45 559.503 1051.37 551.124 1045.79C545.583 1042.1 543.713 1036.3 541.881 1029.44C546.419 1028.77 550.895 1027.91 555.41 1027.61C556.362 1027.54 557.905 1029.38 558.404 1030.64C560.76 1036.6 564.483 1039.63 569.436 1038.6C575.688 1037.31 579.327 1033.58 579.148 1027.04C578.915 1018.6 578.201 1017.15 570.488 1014.19Z" fill="#122F54"/>
<path d="M717.003 638.699C694.37 638.699 672.251 638.605 650.134 638.784C646.055 638.817 644.503 637.659 644.894 633.576C645.198 630.398 644.955 627.169 644.955 623.68C684.704 623.68 724.22 623.68 764.347 623.68C764.347 627.586 764.325 631.598 764.353 635.609C764.378 639.015 761.96 638.704 759.696 638.703C745.636 638.696 731.577 638.699 717.003 638.699Z" fill="#122F54"/>
<path d="M427.742 623.394C430.976 623.394 433.702 623.394 436.735 623.394C436.735 628.416 436.735 633.251 436.735 638.396C397.662 638.396 358.479 638.396 318.988 638.396C318.988 633.674 318.988 628.839 318.988 623.394C355 623.394 391.116 623.394 427.742 623.394Z" fill="#122F54"/>
<path d="M760.231 423.753C760.062 421.02 760.428 419.52 763.289 420.788C775.578 426.235 787.901 431.608 800.187 437.06C810.547 441.657 820.886 446.302 831.208 450.982C833.995 452.246 835.964 460.026 833.743 461.991C832.807 462.82 830.415 462.562 828.884 462.12C807.005 455.811 784.566 455.743 762.086 456.047C761.611 456.053 761.133 455.896 760.231 455.742C760.231 445.205 760.231 434.714 760.231 423.753Z" fill="#122F54"/>
<path d="M321.532 456.03C312.465 456.058 303.826 455.37 295.344 456.222C282.43 457.518 269.624 459.87 256.775 461.798C254.655 462.116 252.553 462.554 249.725 463.066C249.725 460.005 249.544 456.876 249.829 453.79C249.922 452.783 251.033 451.45 252.017 451.007C265.083 445.133 278.208 439.388 291.322 433.619C301.523 429.13 311.729 424.652 322.03 420.127C322.03 432.336 322.03 444.169 321.532 456.03Z" fill="#122F54"/>
<path d="M442.192 1010.11C442.192 1005.41 442.192 1001.22 442.192 996.105C435.541 999.662 429.593 1002.84 422.636 1006.56C422.636 1001.23 422.41 997.66 422.76 994.147C422.881 992.928 424.208 991.511 425.365 990.762C432.154 986.362 439.816 983.071 443.416 974.96C443.982 973.686 446.28 972.673 447.9 972.459C450.909 972.063 454.009 972.346 457.35 972.346C457.35 998.153 457.35 1023.73 457.35 1049.6C452.538 1049.6 447.661 1049.6 442.192 1049.6C442.192 1036.65 442.192 1023.64 442.192 1010.11Z" fill="#122F54"/>
<path d="M515.268 618.293C449.601 618.293 384.447 618.303 319.294 618.241C317.323 618.239 315.352 617.469 313.381 617.057C313.482 616.449 313.584 615.84 313.685 615.232C315.317 615.232 316.949 615.232 318.581 615.232C467.233 615.232 615.885 615.232 764.537 615.232C765.394 615.232 766.332 615.016 767.088 615.29C767.966 615.608 768.686 616.356 769.474 616.918C768.752 617.375 768.079 618.08 767.297 618.233C766.142 618.458 764.908 618.293 763.708 618.293C681.066 618.293 598.425 618.293 515.268 618.293Z" fill="#122F54"/>
<path d="M452.484 684.704C452.484 682.519 452.484 680.833 452.484 678.502C461.979 678.502 471.334 678.389 480.677 678.678C481.611 678.707 483.223 681.168 483.244 682.52C483.442 695.249 483.361 707.982 483.361 721.029C473.17 721.029 463.147 721.029 452.484 721.029C452.484 709.187 452.484 697.195 452.484 684.704Z" fill="#122F54"/>
<path d="M599.667 712.124C599.667 700.765 599.667 689.913 599.667 678.494C609.089 678.494 618.283 678.376 627.465 678.653C628.526 678.685 630.39 680.9 630.411 682.127C630.627 695.013 630.545 707.904 630.545 721.069C620.271 721.069 610.251 721.069 599.667 721.069C599.667 718.287 599.667 715.458 599.667 712.124Z" fill="#122F54"/>
<path d="M455.572 819.298C455.572 813.036 455.572 807.284 455.572 800.61C459.782 802.334 464.833 797.925 467.778 803.903C470.765 798.295 475.839 802.214 480.067 800.534C480.067 818.724 480.067 836.126 480.067 853.506C471.993 853.506 464.056 853.506 455.572 853.506C455.572 842.435 455.572 831.121 455.572 819.298Z" fill="#122F54"/>
<path d="M720.048 679.526C720.084 693.534 720.084 707.073 720.084 720.978C710.246 720.978 700.458 720.978 690.454 720.978C690.454 706.963 690.454 692.969 690.454 679.056C700.386 679.056 710.199 679.056 720.048 679.526Z" fill="#122F54"/>
<path d="M560.556 831.541C560.556 844.628 560.448 857.208 560.624 869.783C560.674 873.364 559.499 874.668 555.891 874.451C551.816 874.205 547.715 874.394 543.343 874.394C543.343 849.94 543.343 825.727 543.343 801.222C548.844 801.222 554.406 801.222 560.556 801.222C560.556 811.11 560.556 821.07 560.556 831.541Z" fill="#122F54"/>
<path d="M522.473 830.52C522.473 821.684 522.57 813.355 522.423 805.031C522.368 801.924 523.496 800.756 526.622 800.887C530.876 801.065 535.143 800.931 539.685 800.931C539.685 825.379 539.685 849.588 539.685 874.393C535.042 874.393 530.311 874.374 525.581 874.399C522.141 874.417 522.47 872.012 522.47 869.774C522.476 856.86 522.473 843.945 522.473 830.52Z" fill="#122F54"/>
<path d="M362.939 707.055C362.939 697.409 362.939 688.271 362.939 678.813C372.756 678.813 382.415 678.813 392.918 678.813C392.918 692.684 392.918 706.767 392.918 721.1C382.813 721.1 373.155 721.1 362.939 721.1C362.939 716.593 362.939 712.078 362.939 707.055Z" fill="#122F54"/>
<path d="M556.439 682.713C556.439 695.756 556.439 708.304 556.439 721.097C546.446 721.097 536.766 721.097 526.838 721.097C526.838 707.011 526.838 692.995 526.838 678.493C535.943 678.493 544.978 678.59 554.01 678.443C557.336 678.388 556.249 680.58 556.439 682.713Z" fill="#122F54"/>
<path d="M371.174 745.833C380.765 745.833 389.843 745.878 398.92 745.812C402.592 745.785 404.557 746.949 404.176 751.057C403.851 754.561 404.109 758.118 404.109 761.903C386.946 761.903 370.079 761.903 352.928 761.903C352.928 756.747 352.928 751.576 352.928 745.833C358.804 745.833 364.732 745.833 371.174 745.833Z" fill="#122F54"/>
<path d="M640.838 757.952C641.247 761.112 640.512 762.27 637.376 762.236C621.621 762.067 605.863 762.158 589.383 762.158C589.383 757.594 589.05 753.052 589.616 748.622C589.758 747.507 592.767 745.978 594.477 745.955C609.708 745.746 624.944 745.833 640.838 745.833C640.838 749.8 640.838 753.63 640.838 757.952Z" fill="#122F54"/>
<path d="M700.535 762.159C693.53 762.159 687.039 762.159 679.951 762.159C679.951 757.615 679.706 753.242 680.117 748.931C680.225 747.8 682.357 745.985 683.581 745.968C698.316 745.761 713.056 745.749 727.791 745.99C729.016 746.01 731.094 748.134 731.246 749.453C731.705 753.454 731.412 757.541 731.412 762.159C721.138 762.159 711.094 762.159 700.535 762.159Z" fill="#122F54"/>
<path d="M442.6 761.752C442.231 757.841 442.425 754.262 442.131 750.723C441.839 747.208 443.444 745.846 446.68 745.842C460.882 745.824 475.085 745.807 489.286 745.858C492.131 745.868 493.986 746.88 493.719 750.335C493.433 754.034 493.654 757.772 493.654 762.101C476.665 762.101 459.807 762.101 442.6 761.752Z" fill="#122F54"/>
<path d="M802.431 800.951C802.431 797.064 802.431 793.685 802.431 790.008C806.477 790.008 810.327 790.008 814.782 790.008C814.782 793.903 814.782 797.918 814.782 801.933C814.782 817.57 814.59 833.211 814.894 848.842C814.99 853.748 813.612 855.769 808.595 855.05C806.769 854.788 804.873 855.008 802.431 855.008C802.431 837.021 802.431 819.24 802.431 800.951Z" fill="#122F54"/>
<path d="M278.538 851.74C277.238 852.817 275.979 853.766 274.633 853.909C272.09 854.18 269.497 853.988 266.557 853.988C266.557 832.765 266.557 811.602 266.557 790.072C270.111 790.072 273.962 790.072 278.54 790.072C278.54 810.268 278.54 830.758 278.538 851.74Z" fill="#122F54"/>
<path d="M297.066 834.354C297.066 819.373 297.066 804.874 297.066 790.041C302.074 790.041 305.919 790.041 309.813 790.041C309.813 811.032 309.813 832.224 309.813 853.7C305.349 853.7 301.504 853.7 297.066 853.7C297.066 847.46 297.066 841.147 297.066 834.354Z" fill="#122F54"/>
<path d="M802.431 736.631C802.431 719.145 802.431 702.168 802.431 684.903C806.501 684.903 810.351 684.903 814.494 684.903C814.494 705.659 814.494 726.478 814.494 747.586C810.71 747.586 806.86 747.586 802.431 747.586C802.431 744.159 802.431 740.649 802.431 736.631Z" fill="#122F54"/>
<path d="M303.287 747.874C301.434 747.874 300.078 747.874 298.411 747.874C298.411 726.879 298.411 706.057 298.411 684.924C302.123 684.924 305.974 684.924 310.14 684.924C310.14 705.621 310.14 726.443 310.14 747.874C308.095 747.874 305.939 747.874 303.287 747.874Z" fill="#122F54"/>
<path d="M278.54 728.487C278.54 735.095 278.54 741.193 278.54 747.582C274.477 747.582 270.627 747.582 266.48 747.582C266.48 726.836 266.48 706.018 266.48 684.906C270.252 684.906 274.102 684.906 278.54 684.906C278.54 699.212 278.54 713.594 278.54 728.487Z" fill="#122F54"/>
<path d="M784.934 698.038C784.934 714.843 784.934 731.155 784.934 747.668C780.052 747.668 776.545 747.668 772.81 747.668C772.81 726.75 772.81 705.976 772.81 684.908C776.291 684.908 779.79 684.908 783.551 684.908C784.003 689.04 784.469 693.293 784.934 698.038Z" fill="#122F54"/>
<path d="M772.583 800.951C772.583 797.066 772.583 793.688 772.583 790.01C776.283 790.01 779.787 790.01 784.114 790.01C784.114 811.112 784.114 832.333 784.114 853.766C780.926 853.766 777.042 853.766 772.583 853.766C772.583 836.328 772.583 818.893 772.583 800.951Z" fill="#122F54"/>
<path d="M520.415 756.993C520.415 745.833 520.415 745.833 531.238 745.833C541.46 745.833 551.683 745.833 562.26 745.833C562.26 751.176 562.26 756.46 562.26 761.955C548.452 761.955 534.695 761.955 520.415 761.955C520.415 760.41 520.415 758.947 520.415 756.993Z" fill="#122F54"/>
<path d="M750.837 398.923C716.782 398.923 683.229 398.879 649.676 398.978C645.528 398.991 642.636 398.503 644.271 393.09C681.223 393.09 718.444 393.09 755.89 393.09C755.89 394.914 755.89 396.685 755.89 398.923C754.327 398.923 752.833 398.923 750.837 398.923Z" fill="#122F54"/>
<path d="M371.173 398.923C357.821 398.923 344.98 398.781 332.147 399.001C327.769 399.076 325.963 397.729 327.23 393.087C364.211 393.087 401.43 393.087 438.877 393.087C438.877 394.91 438.877 396.681 438.877 398.923C416.438 398.923 394.063 398.923 371.173 398.923Z" fill="#122F54"/>
<path d="M616.136 815.222C616.136 810.316 616.136 805.919 616.136 801.658C616.621 801.335 616.889 801.001 617.156 801.001C631.03 800.978 628.309 799.447 628.45 811.674C628.61 825.585 628.487 839.499 628.487 853.699C624.417 853.699 620.569 853.699 616.136 853.699C616.136 841.09 616.136 828.41 616.136 815.222Z" fill="#122F54"/>
<path d="M364.997 833.581C364.997 824.409 365.277 815.735 364.888 807.09C364.667 802.167 366.18 800.174 371.184 800.889C373.009 801.15 374.905 800.931 377.348 800.931C377.348 807.686 377.348 814.247 377.348 820.807C377.348 830.488 377.167 840.173 377.421 849.847C377.557 855.037 374.104 853.974 371.191 853.958C368.308 853.941 364.678 855.105 364.939 849.883C365.202 844.631 364.997 839.356 364.997 833.581Z" fill="#122F54"/>
<path d="M692.301 840.701C692.301 829.155 692.55 818.107 692.188 807.078C692.025 802.14 693.515 800.183 698.499 800.889C700.326 801.148 702.221 800.931 704.652 800.931C704.652 808.206 704.652 815.278 704.652 822.349C704.652 831.521 704.469 840.698 704.723 849.863C704.867 855.066 701.378 853.959 698.478 853.958C695.582 853.956 691.865 855.072 692.262 849.866C692.48 846.995 692.301 844.094 692.301 840.701Z" fill="#122F54"/>
<path d="M614.077 816.24C614.077 828.967 614.077 841.185 614.077 853.695C610.358 853.695 606.852 853.695 603.047 853.695C603.047 836.355 603.047 818.937 603.047 801.224C606.475 801.224 609.981 801.224 614.077 801.224C614.077 805.999 614.077 810.864 614.077 816.24Z" fill="#122F54"/>
<path d="M718.032 848.641C718.587 852.929 716.942 854.452 713.106 854.024C711.243 853.816 709.338 853.988 707.081 853.988C707.081 836.386 707.081 818.848 707.081 801.119C710.518 801.119 713.906 801.119 718.032 801.119C718.032 816.708 718.032 832.433 718.032 848.641Z" fill="#122F54"/>
<path d="M379.407 840.714C379.407 827.311 379.407 814.416 379.407 801.227C383.119 801.227 386.625 801.227 390.729 801.227C390.729 809.389 390.729 817.65 390.729 825.912C390.729 833.39 390.471 840.88 390.825 848.341C391.038 852.844 389.599 854.652 385.047 854.025C383.386 853.796 381.666 853.988 379.407 853.988C379.407 849.605 379.407 845.414 379.407 840.714Z" fill="#122F54"/>
<path d="M535.036 782.565C540.071 782.565 544.681 782.292 549.244 782.629C556.411 783.159 561 790.061 560.168 798.721C547.771 798.721 535.358 798.721 522.953 798.721C522.125 789.164 525.784 784.123 535.036 782.565Z" fill="#122F54"/>
<path d="M803.49 469.323C800.887 468.983 798.757 468.368 796.622 468.351C784.675 468.256 772.727 468.305 760.507 468.305C760.507 466.288 760.507 464.521 760.507 462.293C771.454 460.773 782.45 460.493 793.553 462.111C804.611 463.724 815.73 464.939 826.832 466.247C832.194 466.879 834.323 469.001 834.157 474.466C824.05 472.746 814.005 471.035 803.49 469.323Z" fill="#122F54"/>
<path d="M302.249 461.163C309.307 461.163 315.857 461.163 322.602 461.163C322.602 464.296 322.602 466.09 322.602 468.305C310.18 468.305 297.809 467.535 285.582 468.525C273.724 469.486 262.015 472.255 249.981 474.273C249.981 472.439 249.981 470.641 249.981 468.525C266.761 463.321 284.171 461.712 302.249 461.163Z" fill="#122F54"/>
<path d="M626.437 398.923C614.247 393.468 602.485 387.993 590.664 382.647C580.984 378.27 571.177 374.166 561.579 369.621C560.246 368.99 559.794 366.529 558.935 364.915C559.326 364.607 559.718 364.298 560.11 363.99C565.904 366.488 571.725 368.924 577.485 371.497C594.864 379.258 612.226 387.058 629.576 394.882C632.119 396.029 634.723 397.16 636.995 398.729C638.434 399.723 639.313 401.514 640.442 402.948C640.024 403.441 639.606 403.935 639.188 404.428C635.072 402.605 630.956 400.783 626.437 398.923Z" fill="#122F54"/>
<path d="M508.019 375.458C486.382 385.088 465.148 394.68 443.795 404.327C442.437 400.701 443.466 399.096 446.779 397.662C469.082 388.01 491.278 378.116 513.487 368.254C516.591 366.876 519.581 365.243 522.992 363.545C523.741 369.913 518.829 370.387 515.644 372.243C513.387 373.557 510.839 374.379 508.019 375.458Z" fill="#122F54"/>
<path d="M627.457 791.041C627.835 793.737 628.212 795.999 628.645 798.592C619.996 798.592 611.589 798.592 603.186 798.592C602.118 789.567 604.641 783.736 610.075 782.586C619.685 780.551 624.751 782.889 627.457 791.041Z" fill="#122F54"/>
<path d="M390.728 795.953C389.69 797.242 388.672 798.75 387.61 798.78C380.298 798.989 372.976 798.89 365.696 798.89C364.047 791.1 367.731 783.209 373.271 782.578C386.778 781.041 389.396 785.407 390.728 795.953Z" fill="#122F54"/>
<path d="M714.941 785.632C716.312 790.017 717.64 793.991 719.179 798.599C709.488 798.599 701.035 798.599 692.137 798.599C693.215 792.969 692.116 786.302 698.341 783.509C703.729 781.092 709.744 781.198 714.941 785.632Z" fill="#122F54"/>
<path d="M479.238 789.052C479.724 792.395 480.196 795.312 480.728 798.599C472.166 798.599 464.188 798.599 456.187 798.599C454.211 788.974 456.378 785.242 461.3 782.836C467.288 779.909 476.284 783.191 479.238 789.052Z" fill="#122F54"/>
<path d="M464.847 676.451C460.586 676.451 456.836 676.451 452.786 676.451C452.786 672.779 452.786 669.304 452.786 665.525C462.7 665.525 472.721 665.525 482.824 665.525C482.94 665.69 483.284 665.949 483.287 666.212C483.412 678.668 484.346 676.219 473.585 676.443C470.844 676.5 468.1 676.451 464.847 676.451Z" fill="#122F54"/>
<path d="M625.148 665.228C631.8 664.365 630.27 668.785 630.586 672.13C630.957 676.061 628.838 676.554 625.593 676.5C617.074 676.357 608.551 676.451 599.852 676.451C599.852 672.667 599.852 669.31 599.852 665.228C608.029 665.228 616.345 665.228 625.148 665.228Z" fill="#122F54"/>
<path d="M365.209 676.449C364.122 674.835 363.264 673.263 363.008 671.599C362.71 669.659 362.939 667.639 362.939 665.444C372.948 665.444 382.586 665.444 392.506 665.444C392.506 668.928 392.506 672.388 392.506 676.451C383.635 676.451 374.67 676.451 365.209 676.449Z" fill="#122F54"/>
<path d="M710.787 665.228C714.021 665.228 716.746 665.228 719.78 665.228C719.78 668.885 719.78 672.362 719.78 676.148C710.227 676.148 700.544 676.148 690.551 676.148C690.551 672.79 690.551 669.313 690.551 665.228C697.038 665.228 703.658 665.228 710.787 665.228Z" fill="#122F54"/>
<path d="M550.171 665.228C552.375 665.228 554.075 665.228 556.107 665.228C556.107 668.845 556.107 672.321 556.107 676.129C546.616 676.129 536.931 676.129 526.917 676.129C526.917 672.824 526.917 669.347 526.917 665.228C534.377 665.228 542.023 665.228 550.171 665.228Z" fill="#122F54"/>
<path d="M548.203 349.947C554.165 349.947 559.612 349.947 565.458 349.947C565.564 351.878 565.662 353.652 565.778 355.755C549.668 355.755 533.721 355.755 517.55 355.755C517.55 353.957 517.55 352.189 517.55 349.947C527.637 349.947 537.663 349.947 548.203 349.947Z" fill="#122F54"/>
<path d="M463.81 776.485C461.674 772.431 459.573 768.769 457.165 764.571C464.747 764.571 471.731 764.571 479.05 764.571C476.599 769.128 474.332 773.811 471.628 778.23C469.345 781.961 466.567 781.374 463.81 776.485Z" fill="#122F54"/>
<path d="M611.27 776.141C609.036 772.117 607.046 768.405 604.886 764.376C612.213 764.376 619.11 764.376 626.581 764.376C624.014 769.402 621.731 774.301 619.043 778.971C617.368 781.884 614.139 780.735 611.27 776.141Z" fill="#122F54"/>
<path d="M696.152 764.308C702.984 764.212 709.379 764.212 716.413 764.212C713.986 769.081 712.035 773.364 709.752 777.465C707.646 781.246 704.636 781.455 702.417 777.763C699.856 773.503 697.92 768.873 696.152 764.308Z" fill="#122F54"/>
<path d="M379.363 764.199C382.708 764.199 385.556 764.199 389.014 764.199C386.308 769.29 384.221 774.09 381.224 778.245C380.477 779.281 375.508 779.134 374.693 777.986C371.731 773.814 369.708 768.988 367.223 764.199C371.377 764.199 375.122 764.199 379.363 764.199Z" fill="#122F54"/>
<path d="M791.109 868.272C801.353 868.272 811.083 868.272 820.812 868.272C821.035 868.818 821.258 869.363 821.481 869.908C819.925 870.723 818.379 872.226 816.813 872.245C802.096 872.426 787.376 872.389 772.658 872.294C771.256 872.285 769.86 871.462 768.19 869.797C769.668 869.289 771.134 868.384 772.625 868.342C778.611 868.174 784.604 868.272 791.109 868.272Z" fill="#122F54"/>
<path d="M285.744 872.354C278.57 872.353 271.905 872.493 265.255 872.252C263.658 872.194 262.109 870.873 260.538 870.132C260.741 869.612 260.945 869.091 261.149 868.571C278.125 868.571 295.101 868.571 312.322 868.571C312.979 871.948 310.997 872.397 308.287 872.375C300.945 872.313 293.602 872.354 285.744 872.354Z" fill="#122F54"/>
<path d="M711.846 872.354C702.592 872.353 693.847 872.448 685.11 872.248C683.855 872.219 682.634 870.767 681.398 869.975C681.639 869.501 681.881 869.027 682.122 868.553C697.468 868.553 712.813 868.553 728.158 868.553C724.021 874.666 717.684 871.373 711.846 872.354Z" fill="#122F54"/>
<path d="M547.174 774.396C546.337 776.239 545.539 777.673 544.666 779.242C540.85 780.3 538.55 779.351 537.47 774.783C536.641 771.277 534.285 768.125 532.406 764.418C539.02 764.418 545.033 764.418 551.486 764.418C549.969 767.817 548.591 770.903 547.174 774.396Z" fill="#122F54"/>
<path d="M372.204 868.272C382.106 868.272 391.494 868.272 400.881 868.272C401.103 868.819 401.326 869.366 401.548 869.913C399.989 870.726 398.442 872.221 396.871 872.245C384.208 872.437 371.539 872.436 358.876 872.246C357.301 872.222 355.747 870.744 354.184 869.939C354.4 869.384 354.615 868.828 354.831 868.272C360.451 868.272 366.07 868.272 372.204 868.272Z" fill="#122F54"/>
<path d="M446.761 868.287C461.412 868.274 475.587 868.274 490.18 868.274C490.308 869.505 490.432 870.699 490.604 872.352C476.291 872.352 462.322 872.394 448.353 872.318C445.464 872.303 444.29 870.996 446.761 868.287Z" fill="#122F54"/>
<path d="M610.993 872.354C606.031 872.353 601.565 872.575 597.142 872.244C595.369 872.111 593.689 870.761 592.254 869.385C605.725 866.973 636.162 867.996 639.419 870.864C629.864 873.764 620.578 871.705 610.993 872.354Z" fill="#122F54"/>
<path d="M543.055 879.496C537.224 879.496 531.903 879.607 526.592 879.424C525.121 879.373 523.679 878.45 522.224 877.927C522.365 877.51 522.506 877.092 522.647 876.675C535.226 876.675 547.804 876.675 560.383 876.675C560.444 877.145 560.504 877.614 560.565 878.083C555.303 881.14 549.187 878.724 543.055 879.496Z" fill="#122F54"/>
<path d="M365.745 772.662C367.417 775.638 368.846 778.304 370.274 780.971C369.805 781.332 369.336 781.694 368.867 782.056C364.045 776.463 359.224 770.87 354.188 765.027C361.218 763.503 361.218 763.503 365.745 772.662Z" fill="#122F54"/>
<path d="M600.701 775.468C597.887 771.811 595.105 768.527 592.253 765.161C597.694 763.507 597.837 763.419 600.418 767.549C603.148 771.917 605.569 776.475 608.124 780.95C607.691 781.303 607.257 781.657 606.824 782.01C604.794 779.954 602.764 777.897 600.701 775.468Z" fill="#122F54"/>
<path d="M625.084 776.245C626.771 773.585 628.509 771.324 629.492 768.777C631.165 764.445 634.079 763.31 638.874 764.595C634.019 770.539 629.316 776.294 624.614 782.05C624.144 781.774 623.673 781.499 623.203 781.224C623.733 779.654 624.264 778.085 625.084 776.245Z" fill="#122F54"/>
<path d="M695.724 776.267C696.473 778.048 696.93 779.563 697.387 781.077C696.987 781.383 696.588 781.689 696.189 781.995C691.455 776.271 686.721 770.547 681.556 764.303C684.481 764.303 686.48 764.303 688.527 764.303C690.823 768.193 693.127 772.097 695.724 776.267Z" fill="#122F54"/>
<path d="M714.106 777.793C716.277 774.25 718.477 771.127 720.018 767.713C721.836 763.686 724.751 763.857 728.893 764.538C723.781 770.766 719.096 776.475 714.41 782.183C713.877 781.878 713.344 781.574 712.811 781.269C713.155 780.208 713.499 779.147 714.106 777.793Z" fill="#122F54"/>
<path d="M477.188 777.442C478.814 774.39 480.942 771.896 481.876 769.021C483.509 763.99 486.803 763.493 491.519 764.543C486.468 770.539 481.584 776.337 476.7 782.135C476.284 781.863 475.868 781.591 475.452 781.319C476.019 780.155 476.586 778.992 477.188 777.442Z" fill="#122F54"/>
<path d="M453.506 768.224C455.787 772.663 458.031 776.706 460.276 780.749C459.731 781.118 459.187 781.486 458.643 781.855C453.942 776.216 449.242 770.577 444.478 764.862C450.186 763.798 450.186 763.798 453.506 768.224Z" fill="#122F54"/>
<path d="M398.715 767.921C394.602 772.791 390.708 777.341 386.813 781.891C386.285 781.572 385.756 781.253 385.228 780.934C388.094 775.708 390.673 770.288 394.017 765.381C394.929 764.043 398.141 764.246 401.044 763.567C400.052 765.462 399.492 766.531 398.715 767.921Z" fill="#122F54"/>
<path d="M558.764 769.621C555.915 773.639 553.297 777.351 550.68 781.063C550.035 780.649 549.39 780.235 548.745 779.822C551.159 774.949 553.289 769.9 556.177 765.322C556.949 764.097 560.038 764.308 563.066 763.638C561.267 766.148 560.131 767.731 558.764 769.621Z" fill="#122F54"/>
<path d="M531.752 774.275C532.752 776.461 533.735 778.249 534.718 780.036C527.738 777.176 525.977 770.03 520.364 764.674C523.314 764.674 525.159 764.674 527.133 764.674C528.583 767.572 530.16 770.724 531.752 774.275Z" fill="#122F54"/>
<path d="M459.667 446.746C459.145 439.45 458.691 432.604 458.279 426.399C472.54 419.749 485.988 413.381 499.524 407.204C507.217 403.694 514.931 400.157 522.884 397.316C526.343 396.081 526.599 394.119 526.592 391.38C526.585 388.671 526.591 385.961 526.591 382.925C536.399 382.925 546.083 382.925 556.439 382.925C556.439 385.196 556.91 387.781 556.344 390.119C555.054 395.438 558.74 397.166 562.321 398.794C572.576 403.455 582.913 407.94 593.244 412.435C603.517 416.904 613.823 421.301 624.234 425.782C624.234 432.206 624.234 438.65 624.234 445.852C619.869 446.188 615.391 446.826 610.911 446.833C563.584 446.906 516.256 446.872 468.929 446.892C465.864 446.893 462.8 447.09 459.667 446.746ZM553.351 406.757C552.551 405.846 551.775 404.171 550.948 404.146C543.978 403.935 536.999 404.026 529.68 404.026C529.68 413.448 529.559 422.42 529.833 431.38C529.867 432.496 531.945 434.431 533.148 434.487C539.764 434.793 546.402 434.633 553.351 434.633C553.351 425.354 553.351 416.552 553.351 406.757Z" fill="#122F54"/>
<path d="M532.768 410.348C533.728 409.272 534.668 408.223 535.647 408.185C540.268 408.007 544.9 408.106 549.895 408.106C549.895 415.385 549.895 422.605 549.895 430.191C544.633 430.191 539.062 430.191 532.766 430.191C532.766 423.938 532.766 417.389 532.768 410.348Z" fill="#122F54"/>
<path d="M172 222.187L172 219H911V842.862C911 923.305 867.668 1009.97 799.498 1076.97C731.437 1143.86 640.778 1189 549.078 1189C307.623 1189 172 1000.36 172 836.416C172 750.198 172 591.594 172 454.544L172 276.879L172 222.187Z" stroke="#122F54" stroke-width="34"/>
</g>
<path d="M7.40625 33.0909H46.233L72.9403 98.1761H74.2869L100.994 33.0909H139.821V148H109.298V81.5682H108.401L82.8153 147.102H64.4119L38.8267 81.1193H37.929V148H7.40625V33.0909ZM138.805 148V33.0909H221.621V58.2273H170.001V77.9773H217.357V103.114H170.001V122.864H221.396V148H138.805ZM328.571 76.1818H296.926C296.702 73.5634 296.103 71.1882 295.131 69.0561C294.196 66.924 292.886 65.0911 291.203 63.5575C289.557 61.9865 287.556 60.7895 285.2 59.9666C282.843 59.1063 280.169 58.6761 277.176 58.6761C271.939 58.6761 267.507 59.9479 263.879 62.4915C260.288 65.035 257.557 68.682 255.687 73.4325C253.854 78.183 252.937 83.8873 252.937 90.5455C252.937 97.5777 253.873 103.469 255.743 108.219C257.651 112.933 260.4 116.486 263.991 118.88C267.582 121.237 271.902 122.415 276.952 122.415C279.832 122.415 282.413 122.059 284.695 121.349C286.976 120.601 288.959 119.535 290.642 118.151C292.325 116.767 293.691 115.102 294.738 113.157C295.823 111.174 296.552 108.949 296.926 106.48L328.571 106.705C328.197 111.567 326.832 116.523 324.475 121.573C322.119 126.585 318.771 131.224 314.432 135.488C310.13 139.715 304.8 143.119 298.441 145.7C292.082 148.281 284.695 149.571 276.278 149.571C265.73 149.571 256.267 147.308 247.888 142.782C239.546 138.256 232.944 131.598 228.082 122.808C223.256 114.017 220.844 103.263 220.844 90.5455C220.844 77.7528 223.312 66.9801 228.25 58.2273C233.187 49.437 239.846 42.7976 248.224 38.3089C256.603 33.7829 265.955 31.5199 276.278 31.5199C283.535 31.5199 290.212 32.5111 296.309 34.4936C302.406 36.4761 307.755 39.375 312.356 43.1903C316.957 46.9683 320.66 51.6252 323.465 57.1612C326.271 62.6972 327.973 69.0374 328.571 76.1818ZM434.203 76.1818H402.558C402.333 73.5634 401.735 71.1882 400.762 69.0561C399.827 66.924 398.518 65.0911 396.835 63.5575C395.189 61.9865 393.188 60.7895 390.831 59.9666C388.475 59.1063 385.8 58.6761 382.808 58.6761C377.571 58.6761 373.138 59.9479 369.51 62.4915C365.919 65.035 363.189 68.682 361.318 73.4325C359.486 78.183 358.569 83.8873 358.569 90.5455C358.569 97.5777 359.504 103.469 361.375 108.219C363.282 112.933 366.031 116.486 369.622 118.88C373.213 121.237 377.534 122.415 382.583 122.415C385.464 122.415 388.044 122.059 390.326 121.349C392.608 120.601 394.59 119.535 396.274 118.151C397.957 116.767 399.322 115.102 400.37 113.157C401.454 111.174 402.184 108.949 402.558 106.48L434.203 106.705C433.829 111.567 432.463 116.523 430.107 121.573C427.75 126.585 424.402 131.224 420.063 135.488C415.762 139.715 410.432 143.119 404.073 145.7C397.714 148.281 390.326 149.571 381.91 149.571C371.362 149.571 361.898 147.308 353.519 142.782C345.178 138.256 338.576 131.598 333.713 122.808C328.888 114.017 326.475 103.263 326.475 90.5455C326.475 77.7528 328.944 66.9801 333.882 58.2273C338.819 49.437 345.477 42.7976 353.856 38.3089C362.235 33.7829 371.586 31.5199 381.91 31.5199C389.167 31.5199 395.843 32.5111 401.941 34.4936C408.038 36.4761 413.387 39.375 417.987 43.1903C422.588 46.9683 426.291 51.6252 429.097 57.1612C431.902 62.6972 433.604 69.0374 434.203 76.1818ZM432.556 148V33.0909H515.371V58.2273H463.752V77.9773H511.107V103.114H463.752V122.864H515.147V148H432.556ZM515.043 148V33.0909H546.239V77.9773H587.534V33.0909H618.73V148H587.534V103.114H546.239V148H515.043ZM613.928 175.605V123.986H622.007C624.7 122.34 627.132 120.021 629.301 117.028C631.508 114.036 633.378 109.753 634.912 104.18C636.483 98.6063 637.643 91.1439 638.391 81.7926L642.206 33.0909H723.45V123.986H735.57V175.605H705.496V148H644.002V175.605H613.928ZM657.692 123.986H693.377V58.2273H670.26L668.465 81.7926C667.941 88.8248 667.137 94.978 666.052 100.252C665.005 105.489 663.752 110.052 662.293 113.942C660.871 117.795 659.338 121.143 657.692 123.986ZM830.863 33.0909V148H800.79V33.0909H830.863ZM727.625 148L762.861 86.9545L728.074 33.0909H766.676L789.792 77.9773H842.758L864.753 33.0909H903.13L869.915 86.5057L904.028 148H866.324L846.574 106.705H785.753L765.105 148H727.625ZM900.291 148V33.0909H983.107V58.2273H931.487V77.9773H978.843V103.114H931.487V122.864H982.882V148H900.291ZM982.779 148V33.0909H1032.38C1040.91 33.0909 1048.37 34.7741 1054.77 38.1406C1061.16 41.5071 1066.14 46.2389 1069.69 52.3359C1073.24 58.433 1075.02 65.5587 1075.02 73.7131C1075.02 81.9422 1073.19 89.0679 1069.52 95.0902C1065.89 101.112 1060.79 105.751 1054.2 109.005C1047.66 112.259 1040.01 113.886 1031.26 113.886H1001.63V89.6477H1024.97C1028.64 89.6477 1031.76 89.0118 1034.34 87.7401C1036.96 86.4309 1038.96 84.5793 1040.35 82.1854C1041.77 79.7914 1042.48 76.9673 1042.48 73.7131C1042.48 70.4214 1041.77 67.616 1040.35 65.2969C1038.96 62.9403 1036.96 61.1449 1034.34 59.9105C1031.76 58.6387 1028.64 58.0028 1024.97 58.0028H1013.97V148H982.779Z" fill="#122F54"/>
<defs>
<clipPath id="clip0_19_151">
<rect width="774" height="1004" fill="white" transform="translate(154 202)"/>
</clipPath>
</defs>
</svg>
