<svg width="960" height="1139" viewBox="0 0 960 1139" fill="none" xmlns="http://www.w3.org/2000/svg">
<g clip-path="url(#clip0_28_297)">
<rect width="960" height="1139" rx="200" fill="white"/>
<g clip-path="url(#clip1_28_297)">
<path d="M627.924 791.037C627.924 720.82 627.924 651.303 627.924 580.978C638.477 580.978 648.753 580.81 659.011 581.168C660.474 581.219 662.255 583.615 663.129 585.311C663.796 586.607 663.263 588.511 663.263 590.145C663.263 693.531 663.263 796.918 663.263 900.305C663.263 902.837 663.263 905.37 663.263 908.355C665.61 908.471 667.644 908.656 669.678 908.658C693.706 908.678 717.735 908.651 741.763 908.689C746.018 908.696 749.459 908.483 746.791 902.668C746.079 901.118 746.665 898.982 746.665 897.115C746.664 817.066 746.664 737.017 746.664 656.968C746.664 631.956 746.664 606.945 746.664 580.988C758.687 580.988 769.183 580.796 779.652 581.229C780.977 581.283 783.261 584.627 783.244 586.429C783.097 602.167 782.434 617.899 782.154 633.637C782.095 636.994 783.357 640.367 783.36 643.733C783.431 731.713 783.416 819.692 783.416 908.171C814.249 908.171 844.979 908.171 876.21 908.171C876.21 814.173 876.21 719.79 876.21 624.671C848.084 616.78 818.728 619.205 789.361 618.713C789.361 616.833 789.361 615.329 789.361 613.341C814.966 610.264 840.295 612.025 865.569 615.921C867.181 616.169 868.863 615.948 870.511 615.99C878.645 616.197 880.952 618.508 880.952 626.431C880.952 719.082 880.874 811.734 881.11 904.384C881.128 911.31 878.692 913.008 872.317 912.962C843.815 912.755 815.31 912.872 786.805 912.872C559.045 912.872 331.284 912.872 103.523 912.872C95.6943 912.872 87.8661 912.872 79.7407 912.872C79.7407 813.828 79.7407 716.572 79.7407 618.117C109.705 612.147 139.948 610.225 170.658 613.316C172.49 617.705 170.913 618.925 166.479 618.858C153.29 618.658 140.067 618.24 126.913 618.943C114.284 619.619 101.729 621.622 89.1336 622.971C84.904 623.424 83.5986 625.46 83.6047 629.748C83.7336 720.532 83.7275 811.316 83.6292 902.101C83.6242 906.71 84.6329 908.806 89.8656 908.769C119.063 908.564 148.262 908.671 178.016 908.671C178.016 799.645 178.016 690.786 178.016 580.988C189.033 580.988 199.526 580.849 210.005 581.167C211.291 581.207 212.917 583.512 213.622 585.1C214.229 586.469 213.75 588.312 213.75 589.946C213.75 693.333 213.75 796.72 213.75 900.106C213.75 902.657 213.75 905.209 213.75 908.19C215.453 908.361 217.002 908.649 218.551 908.651C242.815 908.679 267.079 908.635 291.342 908.702C295.98 908.715 300.071 908.793 297.247 902.178C296.655 900.791 297.151 898.947 297.151 897.313C297.15 817.031 297.15 736.749 297.15 656.466C297.15 631.62 297.15 606.773 297.15 580.989C309.189 580.989 319.682 580.849 330.161 581.168C331.446 581.207 333.07 583.515 333.775 585.103C334.382 586.473 333.903 588.315 333.903 589.949C333.903 693.336 333.903 796.723 333.903 900.11C333.903 902.66 333.903 905.211 333.903 908.216C363.885 908.216 393.672 908.216 424.371 908.216C424.371 906.019 424.371 903.561 424.371 901.102C424.371 797.249 424.349 693.395 424.486 589.542C424.489 586.701 425.913 581.57 427.154 581.421C432.357 580.796 437.774 581.459 443.022 582.241C443.676 582.339 444.107 585.963 444.113 587.954C444.187 611.526 444.161 635.097 444.161 658.668C444.161 739.184 444.161 819.699 444.161 900.215C444.161 902.756 444.161 905.297 444.161 908.253C468.565 908.253 492.697 908.253 517.39 908.253C517.39 799.531 517.39 690.672 517.39 582.18C518.306 581.549 518.672 581.075 519.037 581.076C540.063 581.144 535.94 578.343 535.969 597.105C536.125 698.158 536.043 799.211 536.043 900.264C536.043 902.801 536.043 905.337 536.043 908.271C566.609 908.271 596.865 908.271 627.924 908.271C627.924 869.485 627.924 830.611 627.924 791.037ZM205.269 769.33C205.269 812.259 205.228 855.188 205.353 898.116C205.362 901.234 206.566 904.349 207.215 907.466C207.84 907.312 208.466 907.159 209.092 907.006C209.092 821.296 209.092 735.587 209.092 650.012C199.614 650.012 190.559 650.012 181.387 650.012C181.325 651.329 181.245 652.237 181.245 653.146C181.239 735.97 181.239 818.794 181.239 901.618C181.239 902.784 180.848 904.183 181.36 905.058C181.987 906.127 183.377 906.758 185.599 908.477C185.599 822.952 185.599 739.306 185.599 655.459C192.868 655.459 199.606 655.459 205.269 655.459C205.269 693.117 205.269 730.524 205.269 769.33ZM654.782 744.123C654.782 797.038 654.765 849.953 654.868 902.868C654.871 904.449 656.146 906.028 656.828 907.608C657.396 907.331 657.963 907.053 658.531 906.775C658.531 821.093 658.531 735.412 658.531 650.083C648.977 650.083 639.918 650.083 631.14 650.083C631.14 736.098 631.14 821.625 631.14 907.152C631.95 907.32 632.76 907.488 633.569 907.657C634.044 905.423 634.93 903.19 634.933 900.956C635.004 823.514 634.984 746.072 635.015 668.63C635.017 664.258 634.037 659.099 636.041 655.823C637.158 653.997 643.492 655.302 647.475 655.196C647.71 655.19 647.981 655.268 648.176 655.179C654.591 652.259 654.843 656.063 654.827 660.849C654.735 688.14 654.782 715.431 654.782 744.123ZM305.632 734.32C305.632 708.047 305.632 681.774 305.632 655.599C312.669 655.599 318.897 655.599 325.422 655.599C325.422 658.53 325.422 661.069 325.422 663.607C325.422 742.245 325.422 820.882 325.423 899.52C325.423 901.386 325.064 903.362 325.579 905.079C325.891 906.119 327.563 906.758 329.321 908.115C329.321 821.072 329.321 735.551 329.321 649.91C320.373 649.91 311.768 649.91 302.805 649.91C302.805 658.347 302.938 666.463 302.778 674.573C302.388 694.485 301.688 714.392 301.481 734.305C301.402 741.848 302.719 749.401 302.741 756.952C302.871 801.054 302.809 845.156 302.79 889.259C302.789 891.34 302.505 893.42 302.477 895.502C302.424 899.407 302.462 903.313 302.462 907.218C303.518 907.189 304.575 907.16 305.632 907.131C305.632 849.994 305.632 792.857 305.632 734.32ZM755.145 674.114C755.145 667.893 755.145 661.673 755.145 654.817C762.135 654.817 768.349 654.817 774.935 654.817C774.935 658.302 774.935 660.847 774.935 663.393C774.935 742.246 774.935 821.1 774.935 899.954C774.935 901.587 774.653 903.293 775.05 904.826C775.293 905.766 776.582 906.44 777.401 907.234C777.989 906.445 778.938 905.717 779.089 904.853C779.366 903.267 779.175 901.601 779.175 899.968C779.176 819.948 779.176 739.928 779.176 659.907C779.176 658.274 779.291 656.631 779.149 655.01C778.831 651.402 777.487 649.198 773.089 649.501C767.465 649.89 761.789 649.712 756.142 649.556C752.146 649.447 751.294 651.609 751.429 654.935C751.764 663.169 752.271 671.405 752.279 679.641C752.347 749.163 752.347 818.685 752.257 888.207C752.251 893.223 751.194 898.233 751.019 903.259C750.968 904.716 752.286 906.22 752.977 907.702C753.7 907.471 754.422 907.24 755.145 907.009C755.145 829.843 755.145 752.676 755.145 674.114Z" fill="#122F54"/>
<path d="M425.785 536.163C398.733 536.163 372.388 536.163 345.628 536.163C345.628 444.309 345.628 352.739 345.628 260.589C362.507 253.01 379.848 245.381 397.05 237.457C416.901 228.313 436.671 218.991 456.339 209.467C457.997 208.664 459.318 205.83 459.562 203.795C460.058 199.659 459.71 195.425 459.71 190.747C473.111 190.747 486.409 190.747 500.294 190.747C500.294 196.08 500.294 201.786 500.294 207.715C538.714 225.508 576.742 243.119 615.711 261.166C615.711 352.24 615.711 443.835 615.711 536.163C552.062 536.163 489.277 536.163 425.785 536.163ZM497.061 218.27C482.8 218.27 468.54 218.27 454.056 218.27C454.056 223.306 453.541 227.563 454.188 231.639C454.966 236.543 452.245 238.936 448.677 240.565C434.011 247.262 419.269 253.799 404.482 260.231C391.171 266.02 377.712 271.476 364.468 277.409C362.769 278.17 360.988 280.881 360.926 282.743C360.583 292.995 360.597 303.269 360.952 313.519C361.001 314.945 363.608 317.464 365.03 317.463C371.693 317.461 378.354 316.373 385.016 316.359C437.518 316.25 490.019 316.299 542.52 316.299C561.403 316.299 580.285 316.299 599.653 316.299C599.653 306.563 599.291 295.85 599.825 285.182C600.049 280.712 597.557 278.725 594.643 277.463C584.803 273.202 574.592 269.771 564.789 265.433C546.612 257.388 528.554 249.063 510.644 240.452C508.574 239.456 506.869 236.014 506.546 233.51C505.908 228.565 506.358 223.483 506.358 218.27C503.112 218.27 500.777 218.27 497.061 218.27ZM498.442 443.736C500.946 443.736 503.45 443.736 506.016 443.736C506.016 435.941 506.016 428.848 506.016 421.983C505.488 421.643 505.302 421.419 505.115 421.418C493.361 421.377 481.608 421.391 469.854 421.321C449.73 421.2 454.769 421.24 453.991 437.354C453.758 442.193 455.374 443.95 460.39 443.83C472.608 443.54 484.837 443.736 498.442 443.736ZM553.798 421.329C550.363 421.329 546.928 421.329 543.442 421.329C543.442 429.129 543.442 436.209 543.442 443.083C560.441 443.083 577.104 443.083 593.998 443.083C593.998 437.538 593.803 432.195 594.06 426.874C594.268 422.547 592.449 421.194 588.255 421.266C577.235 421.454 566.211 421.329 553.798 421.329ZM399.618 421.329C390.448 421.329 381.275 421.479 372.11 421.263C367.833 421.163 366.154 422.677 366.355 426.947C366.605 432.287 366.415 437.648 366.415 443.076C383.432 443.076 400.24 443.076 416.881 443.076C416.881 435.782 416.881 428.688 416.881 421.329C411.316 421.329 406.169 421.329 399.618 421.329ZM552.515 362.512C564.888 362.512 577.261 362.512 589.27 362.512C589.27 355.848 589.27 350.143 589.27 344.791C575.007 344.791 561.236 344.791 547.351 344.791C547.351 349.701 547.045 354.162 547.526 358.537C547.684 359.975 549.88 361.193 552.515 362.512ZM458.296 356.105C458.296 358.118 458.296 360.131 458.296 362.142C472.807 362.142 486.575 362.142 500.325 362.142C500.325 356.061 500.325 350.358 500.325 344.685C486.174 344.685 472.407 344.685 458.296 344.685C458.296 348.292 458.296 351.523 458.296 356.105ZM370.656 348.03C370.656 352.816 370.656 357.601 370.656 362.027C385.406 362.027 399.179 362.027 412.565 362.027C412.565 355.826 412.565 350.123 412.565 344.307C399.825 344.307 387.581 344.222 375.341 344.412C373.77 344.436 372.221 345.89 370.656 348.03ZM487.227 481.547C491.62 481.547 496.013 481.547 500.311 481.547C500.311 475.067 500.311 469.364 500.311 463.729C486.151 463.729 472.385 463.729 458.691 463.729C458.691 469.827 458.691 475.53 458.691 481.547C467.998 481.547 476.913 481.547 487.227 481.547ZM391.154 463.341C384.416 463.341 377.678 463.341 371.062 463.341C371.062 469.852 371.062 475.555 371.062 481.147C385.236 481.147 399.001 481.147 412.656 481.147C412.656 475.037 412.656 469.334 412.656 463.341C405.689 463.341 399.126 463.341 391.154 463.341ZM589.758 474.092C589.435 470.522 589.112 466.952 588.819 463.707C574.845 463.707 561.281 463.707 547.72 463.707C547.72 469.779 547.72 475.479 547.72 481.197C561.859 481.197 575.627 481.197 589.758 481.197C589.758 479.034 589.758 477.205 589.758 474.092ZM475.654 487.231C469.889 487.231 464.124 487.231 458.568 487.231C458.568 499.783 458.568 511.389 458.568 523.274C464.594 523.274 470.349 523.274 476.596 523.274C476.596 511.417 476.596 499.812 475.654 487.231ZM476.673 398.082C476.673 388.618 476.673 379.153 476.673 369.97C469.997 369.97 464.241 369.97 458.756 369.97C458.756 382.203 458.756 393.978 458.756 405.714C464.807 405.714 470.397 405.714 476.673 405.714C476.673 403.492 476.673 401.471 476.673 398.082ZM370.656 396.719C370.656 399.669 370.656 402.618 370.656 405.557C376.685 405.557 381.97 405.557 387.247 405.557C387.247 393.413 387.247 381.642 387.247 369.886C381.582 369.886 376.297 369.886 370.656 369.886C370.656 378.614 370.656 386.976 370.656 396.719ZM413.057 403.52C413.057 392.205 413.057 380.89 413.057 369.78C406.91 369.78 401.787 369.78 396.389 369.78C396.389 381.818 396.389 393.59 396.389 406.356C402.13 405.842 407.558 405.355 413.057 403.52ZM561.929 369.52C557.103 369.52 552.277 369.52 547.853 369.52C547.853 382.293 547.853 394.073 547.853 405.417C553.651 405.417 558.94 405.417 563.288 405.417C563.288 393.132 563.288 381.365 561.929 369.52ZM588.749 369.599C583.457 369.599 578.165 369.599 573.314 369.599C573.314 382.312 573.314 394.087 573.314 405.656C578.957 405.656 584.079 405.656 589.681 405.656C589.681 393.789 589.681 382.183 588.749 369.599ZM413.062 519.799C413.062 508.942 413.062 498.085 413.062 487.649C406.772 487.649 401.485 487.649 396.605 487.649C396.605 499.933 396.605 511.713 396.605 523.559C400.643 523.559 404.205 523.823 407.697 523.451C409.546 523.255 411.274 521.952 413.062 519.799ZM484.77 487.231C484.77 499.167 484.77 511.103 484.77 523.26C489.624 523.26 494.908 523.26 500.396 523.26C500.396 511.187 500.396 499.414 500.396 487.154C495.445 487.154 490.787 487.154 484.77 487.231ZM563.285 523.476C563.285 511.54 563.285 499.605 563.285 487.447C558.431 487.447 553.147 487.447 547.659 487.447C547.659 499.52 547.659 511.294 547.659 523.553C552.609 523.553 557.267 523.553 563.285 523.476ZM575.184 487.154C574.413 487.529 572.972 487.898 572.968 488.28C572.849 499.994 572.871 511.709 572.871 523.122C579.011 523.122 584.276 523.122 589.399 523.122C589.399 510.964 589.399 499.246 589.399 487.149C584.876 487.149 580.706 487.149 575.184 487.154ZM375.758 523.559C379.655 523.559 383.552 523.559 387.155 523.559C387.155 510.86 387.155 499.082 387.155 487.617C381.396 487.617 376.108 487.617 370.656 487.617C370.656 498.573 370.52 509.065 370.821 519.546C370.861 520.916 373.15 522.222 375.758 523.559ZM500.703 392.576C500.703 384.984 500.703 377.393 500.703 369.514C497.349 369.514 494.795 369.514 492.24 369.514C489.514 369.514 486.789 369.514 484.432 369.514C483.987 370.493 483.818 370.691 483.817 370.891C483.782 377.641 483.801 384.393 483.733 391.143C483.548 409.642 483.957 405.538 499.372 405.822C499.726 405.829 500.09 405.334 500.703 404.888C500.703 401.363 500.703 397.662 500.703 392.576Z" fill="#122F54"/>
<path d="M647.714 517.893C647.714 446.027 647.811 374.851 647.559 303.676C647.534 296.817 649.547 295.059 656.289 295.143C684.551 295.497 712.821 295.387 741.087 295.204C746.058 295.172 748.196 296.229 748.184 301.743C748.024 378.053 748.075 454.363 748.062 530.673C748.062 531.335 747.894 531.996 747.709 533.362C736.704 533.362 725.718 533.362 714.733 533.362C695.218 533.362 675.696 533.063 656.193 533.522C649.273 533.686 646.68 531.583 647.667 524.876C647.97 522.819 647.714 520.682 647.714 517.893ZM707.779 442.335C714.048 442.335 720.317 442.335 726.47 442.335C726.47 434.43 726.47 427.328 726.47 420.327C709.002 420.327 691.941 420.327 674.976 420.327C674.976 427.833 674.976 434.935 674.976 442.335C685.709 442.335 696.04 442.335 707.779 442.335ZM717.427 342.907C708.536 342.812 699.57 343.394 690.775 342.436C681.469 341.422 678.814 342.911 678.812 351.954C678.812 354.884 678.812 357.814 678.812 360.82C693.265 360.82 706.979 360.82 721.217 360.82C721.217 355.726 721.363 350.9 721.106 346.095C721.048 344.997 719.6 343.971 717.427 342.907ZM678.9 462.925C678.871 467.124 678.398 471.389 679.025 475.489C679.289 477.22 681.833 479.894 683.407 479.94C695.815 480.308 708.239 480.145 720.935 480.145C720.935 473.902 720.935 468.203 720.935 462.015C707.081 462.015 693.487 462.015 678.9 462.925ZM678.812 378.677C678.812 386.713 678.812 394.749 678.812 402.782C685.306 402.782 691.04 402.782 696.482 402.782C696.482 390.711 696.482 378.983 696.482 367.163C690.885 367.163 684.955 367.163 678.812 367.163C678.812 370.84 678.812 374.07 678.812 378.677ZM682.518 523.558C685.807 523.558 689.263 524.16 692.324 523.332C694.158 522.836 696.581 520.162 696.666 518.37C697.073 509.755 697.008 501.094 696.54 492.481C696.44 490.639 694.184 487.67 692.548 487.393C688.266 486.671 683.777 487.15 678.817 487.15C678.817 498.779 678.765 509.89 678.919 520.999C678.931 521.86 680.39 522.702 682.518 523.558ZM704.257 490.957C704.257 501.774 704.257 512.591 704.257 523.116C710.466 523.116 715.738 523.116 721.219 523.116C721.219 513.167 721.396 503.654 721.101 494.156C721.023 491.628 719.005 486.91 718.715 486.973C713.927 488.016 708.231 484.739 704.257 490.957ZM714.771 366.713C711.354 366.713 707.937 366.713 704.588 366.713C704.588 379.251 704.588 390.968 704.588 402.83C710.183 402.83 715.442 402.83 721.217 402.83C721.217 391.704 721.068 380.862 721.289 370.027C721.38 365.556 718.4 366.94 714.771 366.713Z" fill="#122F54"/>
<path d="M212.336 424.13C212.336 381.463 212.336 339.496 212.336 297.111C245.685 297.111 278.76 297.111 312.268 297.111C312.268 375.447 312.268 453.947 312.268 533.362C306.273 533.362 300.022 533.259 293.776 533.381C273.71 533.772 253.646 534.274 233.581 534.672C227.976 534.783 222.349 534.954 216.767 534.584C212.722 534.317 212.234 531.371 212.249 527.715C212.396 493.42 212.336 459.125 212.336 424.13ZM285.842 425.027C286.405 421.365 285.41 419.658 281.088 419.823C271.928 420.171 262.746 419.929 253.573 419.929C233.109 419.929 233.104 419.929 233.581 440.167C233.596 440.793 233.942 441.411 234.118 441.98C251.353 441.98 268.398 441.98 285.842 441.98C285.842 436.546 285.842 431.462 285.842 425.027ZM268.113 361.112C272.019 361.112 275.925 361.112 279.916 361.112C279.916 354.669 279.916 348.948 279.916 342.669C265.737 342.669 251.839 342.669 238.221 342.669C238.221 349.524 238.221 355.208 238.221 361.112C248.01 361.112 257.361 361.112 268.113 361.112ZM280.104 479.137C280.104 473.426 280.104 467.714 280.104 462.21C265.55 462.21 251.95 462.21 238.068 462.21C238.068 468.18 238.068 473.881 238.068 480.07C251.922 480.07 265.521 480.07 280.104 479.137ZM246.973 523.559C249.932 523.559 252.892 523.559 255.786 523.559C255.786 511.003 255.786 499.246 255.786 487.512C249.718 487.138 244.016 486.788 238.208 486.43C238.208 498.447 238.208 510.878 238.208 523.559C240.956 523.559 243.283 523.559 246.973 523.559ZM256.157 370.468C255.059 369.217 254.047 366.989 252.85 366.887C248.01 366.474 243.112 366.716 238.104 366.716C238.104 379.121 238.104 390.891 238.104 402.8C244.187 402.8 249.942 402.8 256.157 402.8C256.157 392.265 256.157 382.047 256.157 370.468ZM263.225 388.394C263.225 393.211 263.225 398.027 263.225 402.73C269.308 402.73 274.594 402.73 279.792 402.73C279.792 390.56 279.792 378.789 279.792 367.109C274.101 367.109 268.815 367.109 263.225 367.109C263.225 374.002 263.225 380.502 263.225 388.394ZM269.673 523.559C273.09 523.559 276.507 523.559 279.856 523.559C279.856 511.021 279.856 499.304 279.856 487.443C274.261 487.443 269.002 487.443 263.227 487.443C263.227 498.568 263.376 509.41 263.155 520.245C263.064 524.716 266.044 523.333 269.673 523.559Z" fill="#122F54"/>
<path d="M789.071 596.297C789.071 592.824 788.604 589.922 789.202 587.255C789.802 584.583 791.465 582.144 792.662 579.603C793.356 579.801 794.05 580 794.743 580.198C794.743 571.845 794.743 563.492 794.743 554.619C796.707 554.443 798.413 554.289 800.379 554.113C800.379 548.517 800.318 543.414 800.398 538.314C800.46 534.304 798.365 533.512 794.793 533.974C791.756 534.367 788.439 534.967 785.618 534.175C779.514 532.46 780.904 526.375 780.824 522.402C780.349 498.769 780.59 475.122 780.59 450.795C799.848 448.923 817.309 449.378 834.975 450.315C848.469 451.03 861.325 453.757 874.39 456.246C880.381 457.387 882.588 459.792 882.539 466.237C882.208 509.851 882.406 553.468 882.299 597.084C882.289 601.065 881.343 605.043 881.075 607.124C850.024 605.418 819.937 603.764 789.071 602.068C789.071 600.996 789.071 598.984 789.071 596.297ZM804.62 489.249C804.62 482.103 804.62 474.957 804.62 467.944C799.94 467.944 796.068 467.944 792.297 467.944C792.297 482.46 792.297 496.571 792.297 510.553C796.579 510.553 800.451 510.553 804.62 510.553C804.62 503.651 804.62 497.148 804.62 489.249ZM842.786 479.514C842.786 489.882 842.786 500.249 842.786 510.636C845.932 510.636 848.381 510.636 850.804 510.636C850.804 496.088 850.804 481.862 850.804 467.421C847.869 467.588 845.424 467.728 842.786 467.878C842.786 471.684 842.786 474.912 842.786 479.514ZM851.268 566.231C851.268 557.675 851.268 549.119 851.268 540.284C848 540.427 845.539 540.534 842.787 540.654C842.787 553.737 842.629 566.311 842.976 578.871C843.022 580.54 845.635 582.14 847.059 583.772C848.461 582.119 850.753 580.62 851.078 578.781C851.719 575.159 851.267 571.348 851.268 566.231Z" fill="#122F54"/>
<path d="M79.4615 471.846C79.4615 459.131 79.3233 458.566 90.8129 455.808C100.984 453.367 111.456 451.771 121.89 450.89C134.91 449.79 148.023 449.623 161.103 449.417C167.237 449.321 173.385 450.077 179.824 450.465C179.824 477.559 179.915 503.666 179.613 529.768C179.593 531.45 176.814 533.898 174.835 534.55C172.586 535.291 169.717 534.739 167.256 534.165C163.1 533.196 161.386 534.648 161.435 538.733C161.493 543.62 161.448 548.507 161.448 553.851C163.261 554.155 164.964 554.441 166.949 554.773C166.949 563.262 166.949 571.613 166.949 580.284C172.144 581.236 174.344 583.324 171.749 588.803C170.496 591.447 170.424 595.568 171.614 598.233C174.355 604.373 170.081 603.285 166.993 603.34C159.694 603.47 152.373 603.059 145.093 603.443C123.407 604.587 101.737 606.008 79.4615 607.358C79.4615 563.406 79.4615 517.968 79.4615 471.846ZM157.208 471.319C157.208 484.45 157.208 497.581 157.208 510.568C161.892 510.568 165.748 510.568 169.63 510.568C169.63 496.133 169.63 482.086 169.63 466.383C165.054 467.706 161.133 468.839 157.208 471.319ZM117.628 482.279C117.628 477.468 117.628 472.656 117.628 467.875C114.471 467.875 112.022 467.875 109.814 467.875C109.814 482.404 109.814 496.596 109.814 511.034C112.524 510.892 114.965 510.765 117.628 510.626C117.628 501.273 117.628 492.473 117.628 482.279ZM117.628 566.254C117.628 557.721 117.628 549.188 117.628 540.645C114.453 540.645 111.954 540.645 109.146 540.645C109.146 552.933 109.422 564.948 109.039 576.943C108.823 583.74 111.77 584.774 117.628 583.147C117.628 577.826 117.628 572.735 117.628 566.254Z" fill="#122F54"/>
<path d="M623.683 309.297C623.683 291.327 623.724 274.057 623.65 256.787C623.635 253.19 623.759 250.412 628.698 250.422C676.245 250.52 723.793 250.481 772.108 250.481C772.108 253.062 772.108 255.306 772.108 257.549C772.108 347.166 772.065 436.782 772.198 526.398C772.207 532.791 770.998 536.037 763.75 533.464C761.872 532.798 759.549 533.364 756.912 533.364C756.912 451.452 756.912 369.645 756.912 287.364C717.662 287.364 678.925 287.364 639.233 287.364C639.233 289.495 639.233 291.948 639.233 294.4C639.233 371.648 639.233 448.895 639.232 526.143C639.232 534.084 633.512 537.66 626.408 533.645C624.766 532.717 623.799 529.307 623.794 527.036C623.653 470.093 623.683 413.149 623.683 356.205C623.683 340.802 623.683 325.4 623.683 309.297Z" fill="#122F54"/>
<path d="M203.855 431.132C203.855 465.4 203.855 498.967 203.855 532.948C198.772 532.948 193.956 532.948 188.719 532.948C188.719 439.653 188.719 346.216 188.719 252.329C237.608 252.329 286.699 252.329 336.73 252.329C336.73 254.501 336.73 256.955 336.73 259.409C336.73 348.063 336.73 436.718 336.73 525.373C336.73 534.144 336.732 534.11 328.034 533.389C325.973 533.218 323.885 533.363 321.311 533.363C321.311 451.214 321.311 369.423 321.311 287.262C282.084 287.262 243.357 287.262 203.855 287.262C203.855 334.965 203.855 382.698 203.855 431.132Z" fill="#122F54"/>
<path d="M843.791 349.91C854.062 351.778 863.653 353.811 873.313 355.45C879.483 356.498 882.693 358.604 882.564 365.914C882.073 393.879 882.366 421.856 882.366 451.788C848.86 442.894 815.251 441.299 781 444.274C780.817 442.158 780.605 440.844 780.604 439.53C780.585 411.538 780.728 383.544 780.471 355.555C780.42 350.004 782.038 348.221 787.683 348.389C800.388 348.768 813.115 348.367 825.828 348.572C831.605 348.665 837.37 349.442 843.791 349.91ZM804.62 377.442C804.45 375.735 804.28 374.028 804.14 372.625C799.742 372.625 796.052 372.625 792.184 372.625C792.184 387.502 792.184 402.069 792.184 416.606C804.619 417.842 804.619 417.842 804.62 406.059C804.62 396.973 804.62 387.886 804.62 377.442ZM842.786 384.286C842.786 395.12 842.786 405.953 842.786 416.81C845.922 416.81 848.369 416.81 850.806 416.81C850.806 401.795 850.806 387.102 850.806 372.194C847.879 372.36 845.428 372.5 842.786 372.65C842.786 376.457 842.786 379.685 842.786 384.286Z" fill="#122F54"/>
<path d="M174.05 348.508C178.502 347.915 179.953 349.09 179.927 353.272C179.735 383.123 179.824 412.975 179.824 444.052C146.193 441.949 112.865 442.314 79.4614 451.91C79.4614 439.847 79.4614 429.171 79.4614 418.494C79.4614 400.526 79.8284 382.547 79.2608 364.597C79.0643 358.38 81.9779 356.27 86.8879 355.602C105.328 353.093 123.764 350.412 142.286 348.68C152.562 347.719 163.005 348.508 174.05 348.508ZM169.93 398.212C169.93 389.665 169.93 381.118 169.93 372.72C165.243 372.72 161.371 372.72 157.61 372.72C157.61 387.706 157.61 402.284 157.61 416.722C161.896 416.722 165.767 416.722 169.93 416.722C169.93 410.75 169.93 405.179 169.93 398.212ZM109.184 407.243C109.184 410.417 109.184 413.591 109.184 416.801C112.295 416.801 114.745 416.801 117.352 416.801C117.352 401.927 117.352 387.38 117.352 372.575C114.626 372.575 112.176 372.575 109.656 372.575C109.656 383.893 109.656 394.985 109.184 407.243Z" fill="#122F54"/>
<path d="M593.993 575.374C510.869 575.374 428.451 575.374 345.622 575.374C345.622 568.451 345.622 561.814 345.622 554.769C435.139 554.769 524.76 554.769 614.792 554.769C614.792 561.292 614.792 567.928 614.792 575.374C608.179 575.374 601.439 575.374 593.993 575.374Z" fill="#122F54"/>
<path d="M721.22 575.374C690.136 575.374 659.758 575.245 629.383 575.491C623.781 575.536 621.65 573.946 622.187 568.342C622.604 563.981 622.27 559.549 622.27 554.76C676.861 554.76 731.132 554.76 786.241 554.76C786.241 560.121 786.211 565.627 786.25 571.133C786.284 575.808 782.964 575.38 779.854 575.379C760.545 575.369 741.236 575.374 721.22 575.374Z" fill="#122F54"/>
<path d="M323.953 554.368C328.396 554.368 332.139 554.368 336.305 554.368C336.305 561.26 336.305 567.897 336.305 574.958C282.642 574.958 228.829 574.958 174.593 574.958C174.593 568.477 174.593 561.84 174.593 554.368C224.051 554.368 273.652 554.368 323.953 554.368Z" fill="#122F54"/>
<path d="M780.589 280.357C780.356 276.607 780.86 274.548 784.788 276.288C801.666 283.764 818.59 291.139 835.464 298.622C849.692 304.932 863.892 311.306 878.068 317.73C881.895 319.465 884.599 330.143 881.549 332.84C880.263 333.978 876.979 333.624 874.876 333.018C844.827 324.357 814.01 324.264 783.137 324.681C782.484 324.69 781.828 324.474 780.589 324.264C780.589 309.801 780.589 295.403 780.589 280.357Z" fill="#122F54"/>
<path d="M178.085 324.659C165.634 324.698 153.769 323.753 142.12 324.922C124.384 326.7 106.796 329.929 89.1497 332.575C86.2376 333.011 83.3507 333.612 79.4678 334.316C79.4678 330.115 79.2185 325.82 79.6105 321.584C79.7383 320.202 81.2634 318.372 82.6152 317.765C100.56 309.703 118.586 301.818 136.596 293.899C150.606 287.738 164.623 281.592 178.769 275.382C178.769 292.138 178.769 308.38 178.085 324.659Z" fill="#122F54"/>
<path d="M444.161 547.366C353.974 547.366 264.493 547.381 175.013 547.295C172.305 547.292 169.599 546.235 166.892 545.67C167.031 544.835 167.17 544 167.31 543.165C169.551 543.165 171.792 543.165 174.033 543.165C378.19 543.165 582.346 543.165 786.503 543.165C787.68 543.165 788.967 542.868 790.006 543.244C791.212 543.681 792.2 544.708 793.283 545.479C792.292 546.107 791.368 547.074 790.293 547.283C788.706 547.593 787.012 547.366 785.364 547.366C671.865 547.366 558.366 547.366 444.161 547.366Z" fill="#122F54"/>
<path d="M357.934 638.516C357.934 635.517 357.934 633.203 357.934 630.004C370.974 630.004 383.822 629.849 396.654 630.245C397.937 630.285 400.15 633.663 400.179 635.519C400.45 652.99 400.34 670.466 400.34 688.373C386.343 688.373 372.579 688.373 357.934 688.373C357.934 672.12 357.934 655.66 357.934 638.516Z" fill="#122F54"/>
<path d="M560.073 676.15C560.073 660.561 560.073 645.665 560.073 629.992C573.012 629.992 585.639 629.831 598.25 630.212C599.707 630.256 602.267 633.295 602.295 634.979C602.593 652.666 602.479 670.359 602.479 688.428C588.37 688.428 574.609 688.428 560.073 688.428C560.073 684.609 560.073 680.727 560.073 676.15Z" fill="#122F54"/>
<path d="M362.174 823.247C362.174 814.653 362.174 806.758 362.174 797.599C367.957 799.964 374.893 793.912 378.938 802.118C383.04 794.421 390.009 799.8 395.816 797.494C395.816 822.46 395.816 846.344 395.816 870.198C384.727 870.198 373.827 870.198 362.174 870.198C362.174 855.004 362.174 839.475 362.174 823.247Z" fill="#122F54"/>
<path d="M725.401 631.409C725.452 650.636 725.452 669.217 725.452 688.303C711.939 688.303 698.497 688.303 684.758 688.303C684.758 669.067 684.758 649.86 684.758 630.764C698.398 630.764 711.875 630.764 725.401 631.409Z" fill="#122F54"/>
<path d="M506.358 840.051C506.358 858.014 506.21 875.279 506.452 892.539C506.52 897.453 504.906 899.244 499.951 898.946C494.354 898.608 488.721 898.868 482.717 898.868C482.717 865.304 482.717 832.071 482.717 798.438C490.273 798.438 497.911 798.438 506.358 798.438C506.358 812.01 506.358 825.68 506.358 840.051Z" fill="#122F54"/>
<path d="M454.056 838.65C454.056 826.522 454.189 815.091 453.987 803.667C453.912 799.402 455.461 797.799 459.754 797.978C465.596 798.222 471.456 798.039 477.695 798.039C477.695 831.593 477.695 864.821 477.695 898.866C471.318 898.866 464.821 898.84 458.324 898.874C453.6 898.899 454.051 895.599 454.052 892.527C454.06 874.802 454.056 857.076 454.056 838.65Z" fill="#122F54"/>
<path d="M234.954 669.192C234.954 655.953 234.954 643.412 234.954 630.43C248.436 630.43 261.702 630.43 276.127 630.43C276.127 649.468 276.127 668.798 276.127 688.469C262.248 688.469 248.984 688.469 234.954 688.469C234.954 682.284 234.954 676.087 234.954 669.192Z" fill="#122F54"/>
<path d="M500.704 635.784C500.704 653.685 500.704 670.907 500.704 688.466C486.98 688.466 473.686 688.466 460.05 688.466C460.05 669.133 460.05 649.896 460.05 629.992C472.555 629.992 484.964 630.125 497.367 629.922C501.936 629.848 500.442 632.855 500.704 635.784Z" fill="#122F54"/>
<path d="M246.263 722.417C259.436 722.417 271.903 722.478 284.369 722.387C289.413 722.35 292.111 723.947 291.588 729.586C291.142 734.395 291.496 739.277 291.496 744.473C267.924 744.473 244.759 744.473 221.205 744.473C221.205 737.395 221.205 730.299 221.205 722.417C229.275 722.417 237.416 722.417 246.263 722.417Z" fill="#122F54"/>
<path d="M616.616 739.049C617.177 743.387 616.169 744.976 611.862 744.929C590.224 744.697 568.582 744.823 545.949 744.823C545.949 738.558 545.491 732.324 546.268 726.244C546.464 724.714 550.597 722.615 552.945 722.583C573.863 722.297 594.787 722.417 616.616 722.417C616.616 727.861 616.616 733.117 616.616 739.049Z" fill="#122F54"/>
<path d="M698.603 744.823C688.982 744.823 680.068 744.823 670.334 744.823C670.334 738.587 669.997 732.585 670.562 726.668C670.71 725.117 673.638 722.625 675.318 722.601C695.555 722.318 715.8 722.301 736.035 722.632C737.719 722.659 740.573 725.574 740.781 727.385C741.411 732.877 741.009 738.485 741.009 744.823C726.899 744.823 713.105 744.823 698.603 744.823Z" fill="#122F54"/>
<path d="M344.359 744.265C343.852 738.897 344.119 733.985 343.715 729.128C343.314 724.303 345.518 722.434 349.963 722.429C369.468 722.404 388.973 722.38 408.477 722.45C412.385 722.465 414.931 723.853 414.564 728.595C414.172 733.672 414.476 738.803 414.476 744.744C391.144 744.744 367.991 744.744 344.359 744.265Z" fill="#122F54"/>
<path d="M838.545 798.067C838.545 792.732 838.545 788.093 838.545 783.047C844.103 783.047 849.39 783.047 855.508 783.047C855.508 788.393 855.508 793.903 855.508 799.413C855.508 820.876 855.245 842.343 855.663 863.797C855.794 870.531 853.901 873.305 847.012 872.318C844.504 871.959 841.899 872.26 838.545 872.26C838.545 847.572 838.545 823.168 838.545 798.067Z" fill="#122F54"/>
<path d="M119.038 867.775C117.253 869.253 115.524 870.556 113.675 870.752C110.183 871.124 106.621 870.86 102.583 870.86C102.583 841.732 102.583 812.685 102.583 783.135C107.465 783.135 112.754 783.135 119.041 783.135C119.041 810.854 119.041 838.977 119.038 867.775Z" fill="#122F54"/>
<path d="M144.485 843.912C144.485 823.351 144.485 803.45 144.485 783.091C151.363 783.091 156.644 783.091 161.992 783.091C161.992 811.903 161.992 840.988 161.992 870.465C155.861 870.465 150.58 870.465 144.485 870.465C144.485 861.9 144.485 853.235 144.485 843.912Z" fill="#122F54"/>
<path d="M838.545 709.786C838.545 685.787 838.545 662.485 838.545 638.789C844.136 638.789 849.423 638.789 855.113 638.789C855.113 667.277 855.113 695.851 855.113 724.822C849.916 724.822 844.628 724.822 838.545 724.822C838.545 720.119 838.545 715.301 838.545 709.786Z" fill="#122F54"/>
<path d="M153.029 725.217C150.484 725.217 148.62 725.217 146.331 725.217C146.331 696.402 146.331 667.824 146.331 638.818C151.429 638.818 156.718 638.818 162.439 638.818C162.439 667.225 162.439 695.804 162.439 725.217C159.632 725.217 156.671 725.217 153.029 725.217Z" fill="#122F54"/>
<path d="M119.041 698.609C119.041 707.678 119.041 716.048 119.041 724.816C113.461 724.816 108.173 724.816 102.478 724.816C102.478 696.343 102.478 667.77 102.478 638.794C107.659 638.794 112.946 638.794 119.041 638.794C119.041 658.428 119.041 678.168 119.041 698.609Z" fill="#122F54"/>
<path d="M814.515 656.817C814.515 679.881 814.515 702.27 814.515 724.935C807.81 724.935 802.994 724.935 797.864 724.935C797.864 696.225 797.864 667.713 797.864 638.796C802.645 638.796 807.45 638.796 812.617 638.796C813.237 644.467 813.876 650.304 814.515 656.817Z" fill="#122F54"/>
<path d="M797.552 798.067C797.552 792.734 797.552 788.098 797.552 783.049C802.634 783.049 807.446 783.049 813.389 783.049C813.389 812.012 813.389 841.138 813.389 870.555C809.01 870.555 803.676 870.555 797.552 870.555C797.552 846.621 797.552 822.692 797.552 798.067Z" fill="#122F54"/>
<path d="M451.229 737.733C451.229 722.417 451.229 722.417 466.092 722.417C480.132 722.417 494.171 722.417 508.698 722.417C508.698 729.749 508.698 737.002 508.698 744.544C489.735 744.544 470.84 744.544 451.229 744.544C451.229 742.424 451.229 740.416 451.229 737.733Z" fill="#122F54"/>
<path d="M767.687 246.278C720.916 246.278 674.835 246.219 628.755 246.355C623.058 246.372 619.086 245.702 621.332 238.273C672.08 238.273 723.199 238.273 774.627 238.273C774.627 240.776 774.627 243.207 774.627 246.278C772.48 246.278 770.428 246.278 767.687 246.278Z" fill="#122F54"/>
<path d="M246.262 246.278C227.924 246.278 210.29 246.084 192.664 246.386C186.651 246.489 184.172 244.641 185.912 238.269C236.701 238.269 287.817 238.269 339.246 238.269C339.246 240.771 339.246 243.202 339.246 246.278C308.428 246.278 277.699 246.278 246.262 246.278Z" fill="#122F54"/>
<path d="M582.69 817.653C582.69 810.92 582.69 804.885 582.69 799.037C583.357 798.593 583.724 798.135 584.092 798.135C603.145 798.103 599.408 796.002 599.602 812.784C599.823 831.876 599.653 850.973 599.653 870.463C594.064 870.463 588.778 870.463 582.69 870.463C582.69 853.157 582.69 835.754 582.69 817.653Z" fill="#122F54"/>
<path d="M237.781 842.851C237.781 830.262 238.166 818.357 237.632 806.492C237.327 799.735 239.405 797 246.278 797.981C248.785 798.339 251.388 798.039 254.744 798.039C254.744 807.31 254.744 816.314 254.744 825.319C254.744 838.606 254.495 851.899 254.844 865.177C255.031 872.3 250.289 870.841 246.288 870.818C242.328 870.796 237.343 872.393 237.702 865.225C238.062 858.017 237.781 850.777 237.781 842.851Z" fill="#122F54"/>
<path d="M687.294 852.623C687.294 836.776 687.636 821.612 687.139 806.476C686.916 799.699 688.961 797.012 695.807 797.981C698.315 798.337 700.918 798.039 704.257 798.039C704.257 808.024 704.257 817.73 704.257 827.435C704.257 840.024 704.006 852.619 704.354 865.198C704.552 872.34 699.761 870.821 695.778 870.818C691.8 870.816 686.695 872.349 687.24 865.202C687.541 861.262 687.294 857.28 687.294 852.623Z" fill="#122F54"/>
<path d="M579.863 819.05C579.863 836.519 579.863 853.288 579.863 870.457C574.756 870.457 569.94 870.457 564.715 870.457C564.715 846.659 564.715 822.752 564.715 798.441C569.422 798.441 574.238 798.441 579.863 798.441C579.863 804.994 579.863 811.672 579.863 819.05Z" fill="#122F54"/>
<path d="M722.633 863.521C723.396 869.407 721.135 871.497 715.867 870.909C713.31 870.623 710.693 870.86 707.593 870.86C707.593 846.701 707.593 822.629 707.593 798.297C712.314 798.297 716.966 798.297 722.633 798.297C722.633 819.693 722.633 841.276 722.633 863.521Z" fill="#122F54"/>
<path d="M257.57 852.642C257.57 834.245 257.57 816.547 257.57 798.445C262.669 798.445 267.484 798.445 273.12 798.445C273.12 809.647 273.12 820.986 273.12 832.325C273.12 842.588 272.766 852.868 273.251 863.11C273.544 869.29 271.568 871.772 265.316 870.91C263.035 870.596 260.673 870.86 257.57 870.86C257.57 864.844 257.57 859.092 257.57 852.642Z" fill="#122F54"/>
<path d="M471.31 772.831C478.224 772.832 484.555 772.456 490.823 772.919C500.666 773.646 506.968 783.119 505.825 795.006C488.8 795.006 471.751 795.006 454.715 795.006C453.578 781.889 458.602 774.969 471.31 772.831Z" fill="#122F54"/>
<path d="M839.999 342.904C836.425 342.436 833.5 341.592 830.568 341.569C814.16 341.438 797.751 341.506 780.967 341.506C780.967 338.738 780.967 336.313 780.967 333.255C796.003 331.168 811.104 330.784 826.352 333.005C841.54 335.218 856.81 336.887 872.057 338.682C879.421 339.549 882.345 342.461 882.117 349.963C868.237 347.601 854.441 345.254 839.999 342.904Z" fill="#122F54"/>
<path d="M151.603 331.703C161.296 331.703 170.292 331.703 179.555 331.703C179.555 336.004 179.555 338.466 179.555 341.506C162.495 341.506 145.504 340.449 128.713 341.808C112.427 343.127 96.3456 346.927 79.8184 349.697C79.8184 347.181 79.8184 344.713 79.8184 341.809C102.864 334.665 126.775 332.457 151.603 331.703Z" fill="#122F54"/>
<path d="M596.838 246.279C580.097 238.791 563.943 231.277 547.707 223.94C534.413 217.933 520.944 212.299 507.763 206.062C505.932 205.196 505.312 201.818 504.131 199.603C504.669 199.179 505.207 198.756 505.745 198.333C513.702 201.762 521.698 205.105 529.608 208.636C553.476 219.288 577.32 229.994 601.149 240.733C604.641 242.306 608.217 243.859 611.338 246.013C613.315 247.376 614.521 249.835 616.072 251.803C615.498 252.48 614.924 253.157 614.35 253.834C608.697 251.333 603.044 248.832 596.838 246.279Z" fill="#122F54"/>
<path d="M434.204 214.073C404.489 227.29 375.326 240.456 346 253.695C344.135 248.72 345.548 246.517 350.099 244.548C380.728 231.301 411.212 217.721 441.714 204.185C445.977 202.293 450.083 200.053 454.768 197.722C455.796 206.462 449.05 207.112 444.676 209.66C441.577 211.464 438.078 212.592 434.204 214.073Z" fill="#122F54"/>
<path d="M598.239 784.465C598.758 788.166 599.276 791.27 599.87 794.829C587.992 794.829 576.445 794.829 564.905 794.829C563.438 782.442 566.903 774.439 574.366 772.86C587.564 770.066 594.523 773.275 598.239 784.465Z" fill="#122F54"/>
<path d="M273.119 791.206C271.693 792.975 270.295 795.045 268.837 795.086C258.794 795.374 248.739 795.238 238.741 795.238C236.476 784.545 241.535 773.715 249.144 772.849C267.694 770.74 271.289 776.732 273.119 791.206Z" fill="#122F54"/>
<path d="M718.388 777.041C720.271 783.059 722.095 788.514 724.208 794.837C710.899 794.837 699.29 794.837 687.07 794.837C688.55 787.11 687.041 777.96 695.59 774.127C702.989 770.809 711.251 770.954 718.388 777.041Z" fill="#122F54"/>
<path d="M394.677 781.735C395.344 786.323 395.993 790.327 396.723 794.838C384.965 794.838 374.008 794.838 363.019 794.838C360.305 781.628 363.281 776.506 370.042 773.203C378.265 769.186 390.619 773.691 394.677 781.735Z" fill="#122F54"/>
<path d="M374.913 627.189C369.061 627.189 363.911 627.189 358.349 627.189C358.349 622.149 358.349 617.38 358.349 612.193C371.964 612.193 385.727 612.193 399.603 612.193C399.762 612.419 400.234 612.775 400.238 613.136C400.41 630.231 401.693 626.87 386.913 627.177C383.149 627.256 379.381 627.189 374.913 627.189Z" fill="#122F54"/>
<path d="M595.067 611.785C604.203 610.601 602.102 616.667 602.536 621.258C603.046 626.653 600.135 627.33 595.679 627.255C583.979 627.059 572.273 627.189 560.327 627.189C560.327 621.995 560.327 617.388 560.327 611.785C571.557 611.785 582.978 611.785 595.067 611.785Z" fill="#122F54"/>
<path d="M238.072 627.186C236.578 624.971 235.4 622.813 235.049 620.53C234.64 617.867 234.953 615.094 234.953 612.081C248.7 612.081 261.937 612.081 275.561 612.081C275.561 616.864 275.561 621.612 275.561 627.189C263.377 627.189 251.065 627.189 238.072 627.186Z" fill="#122F54"/>
<path d="M712.683 611.785C717.124 611.785 720.867 611.785 725.033 611.785C725.033 616.805 725.033 621.576 725.033 626.772C711.913 626.772 698.616 626.772 684.891 626.772C684.891 622.164 684.891 617.392 684.891 611.785C693.8 611.785 702.892 611.785 712.683 611.785Z" fill="#122F54"/>
<path d="M492.096 611.785C495.122 611.785 497.458 611.785 500.248 611.785C500.248 616.749 500.248 621.52 500.248 626.746C487.213 626.746 473.912 626.746 460.159 626.746C460.159 622.21 460.159 617.438 460.159 611.785C470.404 611.785 480.905 611.785 492.096 611.785Z" fill="#122F54"/>
<path d="M489.393 179.059C497.581 179.059 505.062 179.059 513.09 179.059C513.236 181.709 513.371 184.144 513.53 187.031C491.404 187.031 469.503 187.031 447.294 187.031C447.294 184.562 447.294 182.135 447.294 179.059C461.147 179.059 474.917 179.059 489.393 179.059Z" fill="#122F54"/>
<path d="M373.488 764.487C370.554 758.923 367.669 753.896 364.362 748.134C374.775 748.134 384.367 748.134 394.419 748.134C391.053 754.389 387.939 760.816 384.225 766.882C381.09 772.002 377.274 771.196 373.488 764.487Z" fill="#122F54"/>
<path d="M576.008 764.014C572.94 758.491 570.206 753.396 567.24 747.867C577.302 747.867 586.775 747.867 597.036 747.867C593.509 754.764 590.374 761.489 586.683 767.899C584.382 771.896 579.948 770.319 576.008 764.014Z" fill="#122F54"/>
<path d="M692.583 747.773C701.967 747.642 710.749 747.642 720.409 747.642C717.076 754.324 714.397 760.203 711.261 765.832C708.369 771.021 704.234 771.308 701.187 766.241C697.67 760.393 695.012 754.038 692.583 747.773Z" fill="#122F54"/>
<path d="M257.511 747.624C262.104 747.624 266.016 747.624 270.764 747.624C267.049 754.612 264.182 761.199 260.067 766.902C259.041 768.323 252.216 768.122 251.096 766.546C247.028 760.821 244.25 754.196 240.837 747.624C246.542 747.624 251.686 747.624 257.511 747.624Z" fill="#122F54"/>
<path d="M822.996 890.465C837.065 890.465 850.428 890.465 863.79 890.465C864.096 891.214 864.402 891.962 864.709 892.71C862.572 893.829 860.448 895.892 858.298 895.918C838.086 896.166 817.869 896.115 797.655 895.986C795.73 895.973 793.813 894.843 791.52 892.558C793.549 891.861 795.563 890.619 797.611 890.561C805.832 890.33 814.063 890.465 822.996 890.465Z" fill="#122F54"/>
<path d="M128.936 896.067C119.083 896.067 109.93 896.259 100.796 895.928C98.6035 895.849 96.4751 894.034 94.3174 893.018C94.5971 892.304 94.8768 891.589 95.1565 890.875C118.471 890.875 141.786 890.875 165.438 890.875C166.34 895.511 163.617 896.127 159.896 896.096C149.812 896.012 139.727 896.067 128.936 896.067Z" fill="#122F54"/>
<path d="M714.138 896.067C701.427 896.067 689.418 896.197 677.418 895.922C675.695 895.882 674.018 893.89 672.32 892.802C672.652 892.152 672.984 891.501 673.315 890.851C694.39 890.851 715.465 890.851 736.54 890.851C730.859 899.241 722.155 894.721 714.138 896.067Z" fill="#122F54"/>
<path d="M487.979 761.62C486.829 764.148 485.734 766.116 484.535 768.271C479.293 769.722 476.135 768.42 474.652 762.151C473.514 757.338 470.277 753.012 467.697 747.925C476.78 747.925 485.038 747.925 493.902 747.925C491.817 752.59 489.925 756.824 487.979 761.62Z" fill="#122F54"/>
<path d="M247.678 890.465C261.277 890.465 274.17 890.465 287.063 890.465C287.368 891.216 287.673 891.966 287.978 892.717C285.838 893.833 283.713 895.885 281.556 895.917C264.164 896.181 246.765 896.18 229.374 895.919C227.21 895.886 225.077 893.857 222.929 892.753C223.226 891.991 223.522 891.228 223.819 890.465C231.537 890.465 239.254 890.465 247.678 890.465Z" fill="#122F54"/>
<path d="M350.074 890.486C370.195 890.468 389.663 890.468 409.705 890.468C409.881 892.157 410.051 893.796 410.287 896.065C390.631 896.065 371.445 896.122 352.26 896.019C348.292 895.997 346.68 894.204 350.074 890.486Z" fill="#122F54"/>
<path d="M575.628 896.067C568.813 896.067 562.68 896.371 556.604 895.917C554.17 895.734 551.863 893.881 549.892 891.993C568.393 888.682 610.194 890.086 614.667 894.023C601.545 898.003 588.792 895.177 575.628 896.067Z" fill="#122F54"/>
<path d="M482.323 905.87C474.315 905.87 467.007 906.022 459.713 905.771C457.692 905.701 455.712 904.434 453.714 903.716C453.907 903.143 454.101 902.571 454.295 901.998C471.57 901.998 488.845 901.998 506.121 901.998C506.204 902.643 506.287 903.286 506.371 903.931C499.144 908.126 490.744 904.81 482.323 905.87Z" fill="#122F54"/>
<path d="M238.808 759.239C241.104 763.324 243.066 766.983 245.027 770.643C244.383 771.139 243.739 771.636 243.094 772.133C236.473 764.456 229.852 756.779 222.935 748.76C232.589 746.669 232.589 746.669 238.808 759.239Z" fill="#122F54"/>
<path d="M561.493 763.09C557.627 758.071 553.807 753.564 549.89 748.944C557.364 746.674 557.56 746.554 561.104 752.222C564.853 758.217 568.178 764.473 571.688 770.615C571.092 771.1 570.497 771.585 569.902 772.07C567.114 769.247 564.325 766.425 561.493 763.09Z" fill="#122F54"/>
<path d="M594.979 764.158C597.297 760.507 599.683 757.403 601.033 753.907C603.33 747.961 607.333 746.404 613.918 748.168C607.25 756.325 600.792 764.225 594.334 772.124C593.688 771.746 593.042 771.368 592.396 770.991C593.124 768.836 593.853 766.682 594.979 764.158Z" fill="#122F54"/>
<path d="M691.995 764.186C693.025 766.631 693.652 768.71 694.279 770.789C693.731 771.209 693.182 771.629 692.634 772.048C686.132 764.192 679.63 756.337 672.538 747.767C676.554 747.767 679.3 747.767 682.111 747.767C685.264 753.105 688.428 758.463 691.995 764.186Z" fill="#122F54"/>
<path d="M717.241 766.282C720.223 761.419 723.243 757.133 725.36 752.447C727.857 746.92 731.861 747.155 737.549 748.089C730.528 756.637 724.094 764.472 717.659 772.307C716.927 771.889 716.195 771.471 715.462 771.053C715.935 769.596 716.407 768.139 717.241 766.282Z" fill="#122F54"/>
<path d="M391.862 765.8C394.095 761.611 397.018 758.188 398.3 754.242C400.543 747.337 405.067 746.654 411.544 748.095C404.607 756.325 397.899 764.283 391.192 772.241C390.62 771.867 390.049 771.494 389.477 771.12C390.256 769.524 391.035 767.927 391.862 765.8Z" fill="#122F54"/>
<path d="M359.337 753.148C362.47 759.241 365.552 764.79 368.634 770.339C367.887 770.845 367.139 771.351 366.391 771.856C359.936 764.117 353.481 756.378 346.938 748.533C354.777 747.074 354.777 747.074 359.337 753.148Z" fill="#122F54"/>
<path d="M284.087 752.732C278.439 759.417 273.09 765.661 267.741 771.906C267.016 771.469 266.29 771.031 265.564 770.593C269.501 763.42 273.043 755.981 277.635 749.246C278.887 747.41 283.3 747.688 287.285 746.756C285.924 749.357 285.155 750.824 284.087 752.732Z" fill="#122F54"/>
<path d="M503.897 755.065C499.984 760.58 496.389 765.674 492.795 770.769C491.909 770.201 491.023 769.633 490.137 769.066C493.453 762.378 496.377 755.449 500.344 749.164C501.405 747.483 505.647 747.773 509.806 746.853C507.334 750.298 505.775 752.472 503.897 755.065Z" fill="#122F54"/>
<path d="M466.8 761.454C468.172 764.454 469.522 766.907 470.872 769.361C461.287 765.435 458.868 755.627 451.159 748.276C455.211 748.276 457.745 748.276 460.456 748.276C462.446 752.253 464.612 756.58 466.8 761.454Z" fill="#122F54"/>
<path d="M367.798 311.916C367.081 301.902 366.458 292.506 365.893 283.989C385.477 274.863 403.947 266.122 422.538 257.645C433.102 252.827 443.697 247.972 454.62 244.073C459.37 242.378 459.722 239.685 459.712 235.926C459.703 232.207 459.71 228.488 459.71 224.321C473.18 224.321 486.48 224.321 500.704 224.321C500.704 227.439 501.351 230.987 500.573 234.195C498.802 241.496 503.864 243.867 508.782 246.101C522.865 252.499 537.062 258.655 551.251 264.824C565.36 270.958 579.513 276.993 593.813 283.142C593.813 291.96 593.813 300.804 593.813 310.689C587.818 311.15 581.667 312.026 575.515 312.036C510.516 312.136 445.517 312.089 380.518 312.116C376.309 312.118 372.101 312.388 367.798 311.916ZM496.463 257.03C495.364 255.781 494.298 253.482 493.162 253.448C483.59 253.158 474.004 253.283 463.953 253.283C463.953 266.214 463.788 278.528 464.163 290.826C464.21 292.358 467.065 295.014 468.715 295.09C477.802 295.511 486.919 295.291 496.463 295.291C496.463 282.555 496.463 270.475 496.463 257.03Z" fill="#122F54"/>
<path d="M468.194 261.959C469.513 260.482 470.803 259.043 472.148 258.991C478.495 258.747 484.856 258.882 491.717 258.882C491.717 268.873 491.717 278.783 491.717 289.194C484.489 289.194 476.839 289.194 468.192 289.194C468.192 280.612 468.192 271.624 468.194 261.959Z" fill="#122F54"/>
</g>
</g>
<defs>
<clipPath id="clip0_28_297">
<rect width="960" height="1139" rx="200" fill="white"/>
</clipPath>
<clipPath id="clip1_28_297">
<rect width="1063" height="1378" fill="white" transform="translate(-52 -24)"/>
</clipPath>
</defs>
</svg>
